<?xml version="1.0" encoding="UTF-8"?>
<svg version="1.1" xmlns="http://www.w3.org/2000/svg" width="500" height="500">
<path d="M0 0 C1.45894464 -0.01298157 1.45894464 -0.01298157 2.9473629 -0.02622539 C6.20978511 -0.04783386 9.47050579 -0.02651076 12.73291016 -0.00532532 C15.07034115 -0.01181762 17.40776621 -0.02087799 19.74517822 -0.03231812 C26.0964613 -0.05542696 32.44714455 -0.04066319 38.79840851 -0.01784873 C44.76691977 -0.00087144 50.73536514 -0.00852896 56.70388961 -0.01483283 C69.2455056 -0.02676905 81.78685236 -0.00270522 94.32840705 0.03418525 C105.08898783 0.06507822 115.84925866 0.0674493 126.60986328 0.04838562 C139.10664339 0.02627159 151.60324975 0.02013099 164.10003853 0.04070824 C170.71492148 0.05137555 177.32963554 0.05566515 183.94451904 0.04313087 C190.16300432 0.03259403 196.38095681 0.04666638 202.5993576 0.07987404 C204.88385316 0.08809483 207.16839742 0.08778145 209.45288849 0.07839584 C212.56717415 0.06700473 215.67979282 0.08629254 218.79394531 0.11352539 C220.15605165 0.09781816 220.15605165 0.09781816 221.54567528 0.08179361 C225.95627996 0.15384444 227.84045032 0.33774867 231.46908569 3.05943584 C234.04505709 6.66137996 234.00792317 9.53528462 233.39697266 13.75517273 C232.8287782 16.68528691 232.0595431 19.52024822 231.20947266 22.38017273 C230.98388672 23.16577576 230.75830078 23.95137878 230.52587891 24.76078796 C228.7987477 30.66721688 226.77530168 36.43989105 224.64306641 42.21220398 C223.02520001 46.81221908 221.68579521 51.47195045 220.34228516 56.15776062 C218.82542263 61.40495083 217.15204164 66.58316021 215.39697266 71.75517273 C213.48933503 77.39200412 211.67791467 83.03925544 210.02197266 88.75517273 C209.61832885 90.13668374 209.21468292 91.51819413 208.81103516 92.89970398 C208.0296063 95.57716237 207.25295708 98.25584587 206.48193359 100.93632507 C205.46817134 104.44287223 204.43381981 107.94288946 203.39697266 111.44267273 C203.07680176 112.5660907 202.75663086 113.68950867 202.42675781 114.8469696 C200.61271534 120.90903985 198.98576789 125.32487207 194.39697266 129.75517273 C191.46035442 131.22348185 188.49989465 130.89960564 185.28068542 130.89561462 C184.53929787 130.89858575 183.79791032 130.90155687 183.03405648 130.90461802 C180.53677183 130.91332587 178.03953499 130.91481503 175.54223633 130.91630554 C173.75697222 130.92093226 171.9717091 130.92595672 170.18644714 130.93135071 C165.32688108 130.94449118 160.46732885 130.95092291 155.60774779 130.95536137 C152.57342514 130.95828954 149.53910628 130.96239387 146.50478554 130.96686554 C137.01620602 130.98054503 127.52763516 130.99020938 118.03904647 130.99406743 C107.07647391 130.99854894 96.11402599 131.01609925 85.15149134 131.04506803 C76.68434905 131.06666787 68.21724186 131.07677081 59.7500723 131.07810855 C54.69004965 131.07915783 49.63014408 131.0850917 44.57015038 131.10292816 C39.81036685 131.11937943 35.0507888 131.12157869 30.29098701 131.11278915 C28.54345526 131.11201719 26.79591259 131.11638245 25.04840851 131.12624741 C22.66342993 131.13892189 20.279184 131.13311499 17.89421082 131.12266541 C16.8558746 131.13475001 16.8558746 131.13475001 15.7965619 131.14707875 C10.33959564 131.09112642 7.20974118 129.56794126 3.39697266 125.75517273 C3.02587891 123.76689148 3.02587891 123.76689148 2.95947266 121.44267273 C2.91951172 120.68341492 2.87955078 119.9241571 2.83837891 119.14189148 C3.68780121 115.51254164 5.54664834 114.0901701 8.39697266 111.75517273 C11.72963428 111.13993359 11.72963428 111.13993359 15.60395813 111.15390015 C16.67617348 111.14749196 16.67617348 111.14749196 17.77004975 111.14095432 C20.15976067 111.13273332 22.54770733 111.16019149 24.93725586 111.18754578 C26.65225686 111.18895645 28.36726089 111.18816388 30.08226013 111.18533325 C34.73497291 111.18389845 39.3870414 111.21329849 44.03960443 111.24820304 C48.90293122 111.2794559 53.76627273 111.28239644 58.62968445 111.28833008 C67.83781191 111.30387166 77.04564262 111.34490443 86.2536394 111.39507753 C96.73718988 111.45096115 107.22075452 111.47845503 117.70441687 111.5035547 C139.26876777 111.55581996 160.83285152 111.64376844 182.39697266 111.75517273 C182.57873047 111.12611023 182.76048828 110.49704773 182.94775391 109.84892273 C184.5524985 104.38456165 186.33282719 99.06297535 188.39697266 93.75517273 C187.4593704 93.75793811 186.52176815 93.76070349 185.55575371 93.76355267 C162.74623526 93.83013896 139.93672942 93.87944414 117.12713432 93.91060925 C106.0966026 93.92608088 95.06613506 93.94717611 84.03564453 93.98149109 C74.42194073 94.01138431 64.80828341 94.03074558 55.19453442 94.03743821 C50.10370004 94.04135059 45.01299865 94.05055147 39.92220688 94.0723629 C35.13044935 94.09272676 30.33887959 94.0990067 25.5470829 94.09449577 C23.78868019 94.09532102 22.03027119 94.10128726 20.2719059 94.11278915 C17.86966948 94.12773184 15.4681405 94.12412009 13.06588745 94.11593628 C12.37132096 94.1246748 11.67675447 94.13341333 10.96114051 94.14241666 C6.39146421 94.10038552 3.26254695 93.18780462 -0.60302734 90.75517273 C-3.05165985 87.08222398 -3.43486172 84.02248308 -2.60302734 79.75517273 C-0.06849078 76.53562628 1.5099457 75.05084838 5.39697266 73.75517273 C7.91778898 73.64991294 10.4116669 73.60034806 12.9329071 73.59695435 C14.09443911 73.58954738 14.09443911 73.58954738 15.27943641 73.58199078 C17.88200815 73.56659568 20.48455517 73.55824971 23.0871582 73.54985046 C24.94964822 73.54027352 26.81213605 73.53026355 28.67462158 73.51985168 C33.73831809 73.49277664 38.80202395 73.47178115 43.86575294 73.4518497 C49.15488886 73.43000618 54.44399589 73.4026095 59.73310852 73.37579346 C69.75216997 73.32584445 79.77124743 73.28091381 89.79034024 73.23777109 C101.19529049 73.18841758 112.60021176 73.13349246 124.00513399 73.0780915 C147.46905337 72.96423756 170.93300086 72.85760359 194.39697266 72.75517273 C196.87197266 64.83517273 196.87197266 64.83517273 199.39697266 56.75517273 C196.90468109 56.76183456 194.41238953 56.7684964 191.84457397 56.77536011 C168.38891983 56.83662566 144.93327622 56.88129222 121.47756004 56.91060925 C109.41795062 56.92608281 97.35839988 56.94718176 85.29882812 56.98149109 C74.78858324 57.01137837 64.27838086 57.03074417 53.76809466 57.03743821 C48.20218878 57.04135159 42.6364045 57.05055889 37.07053757 57.0723629 C31.83228221 57.09271735 26.59419859 57.09900859 21.35590744 57.09449577 C19.43302477 57.09532144 17.51013639 57.10129323 15.5872879 57.11278915 C12.96173858 57.12771693 10.33683754 57.1241253 7.71127319 57.11593628 C6.95056058 57.1246748 6.18984797 57.13341333 5.40608346 57.14241666 C0.6691176 57.10248782 -2.58605042 56.27796779 -6.60302734 53.75517273 C-8.59962 50.71687956 -8.74839268 48.17037918 -8.54052734 44.63017273 C-7.60302734 40.75517273 -7.60302734 40.75517273 -5.57791615 39.03790569 C-1.71386799 37.3717789 1.79912846 37.33135557 5.93269348 37.35644531 C7.21929533 37.34647507 7.21929533 37.34647507 8.53188914 37.33630341 C11.40476235 37.3176573 14.27721967 37.3202798 17.15014648 37.32279968 C19.2099771 37.31378352 21.26980234 37.30345666 23.32962036 37.29191589 C28.92213524 37.26430279 34.51454843 37.25505549 40.10712266 37.24906182 C45.95147636 37.23968941 51.79575377 37.21348693 57.64006042 37.1890564 C68.70736859 37.14535657 79.77466198 37.11683097 90.84203023 37.09373301 C103.44170845 37.06670004 116.04131007 37.02278734 128.64093363 36.97744429 C154.55957179 36.8845481 180.47823398 36.81289011 206.39697266 36.75517273 C206.51814453 36.1029071 206.63931641 35.45064148 206.76416016 34.77861023 C207.01552734 33.46763367 207.01552734 33.46763367 207.27197266 32.13017273 C207.43439453 31.2716571 207.59681641 30.41314148 207.76416016 29.52861023 C208.44988537 26.52327133 209.38183811 23.6640877 210.39697266 20.75517273 C209.28837544 20.75186258 208.17977823 20.74855244 207.03758717 20.74514198 C180.08078745 20.66419935 153.12404494 20.57189964 126.16732502 20.46764565 C113.13133738 20.41749328 100.09535611 20.37105064 87.05932617 20.33329773 C75.69902753 20.30038845 64.33877797 20.26056309 52.97853345 20.21238267 C46.96167183 20.18710716 40.9448428 20.16532893 34.92794228 20.15182877 C29.26697807 20.13901805 23.6061256 20.11697418 17.94522285 20.08778954 C15.86552385 20.07870605 13.78580684 20.07302173 11.70608902 20.07095909 C8.87007872 20.06764205 6.03438626 20.05217951 3.19844055 20.03364563 C2.37255993 20.03558036 1.5466793 20.0375151 0.69577199 20.03950846 C-4.99569933 19.98377475 -8.7838042 19.52522768 -12.91552734 15.50517273 C-14.97813946 12.14387891 -15.31525259 10.63284351 -14.60302734 6.75517273 C-10.61164689 0.26941359 -7.33851309 -0.11367706 0 0 Z " fill="#FDCE03" transform="translate(184.60302734375,155.2448272705078)"/>
<path d="M0 0 C0.76922287 -0.00004028 1.53844574 -0.00008057 2.33097839 -0.00012207 C3.95226239 0.00521742 5.57354711 0.02273305 7.19458008 0.05175781 C9.65072571 0.09345725 12.10410813 0.09283277 14.56054688 0.0859375 C24.43496004 0.12658329 33.54906326 0.43093302 41.85546875 6.59375 C41.85546875 7.25375 41.85546875 7.91375 41.85546875 8.59375 C42.51546875 8.59375 43.17546875 8.59375 43.85546875 8.59375 C51.10886816 15.84714941 51.74444634 26.88762415 53.203125 36.53515625 C53.41578746 37.9023519 53.62927237 39.26941983 53.84352112 40.6363678 C54.29235453 43.50473176 54.73746107 46.37363826 55.17999268 49.24298096 C56.15844559 55.56901112 57.18184146 61.88779205 58.20075798 68.20740318 C58.77051982 71.74616228 59.33639245 75.28554197 59.90209961 78.82495117 C60.0154984 79.53444192 60.12889719 80.24393267 60.24573231 80.97492313 C60.59493182 83.16034616 60.9439786 85.34579353 61.29296875 87.53125 C61.41212269 88.27728611 61.53127663 89.02332222 61.65404129 89.79196548 C64.60576772 108.27758755 67.5368914 126.76522983 70.29296875 145.28125 C70.40999146 146.06529205 70.52701416 146.84933411 70.64758301 147.65713501 C71.59115337 153.98273941 72.53045459 160.30889743 73.43554688 166.64013672 C73.96398224 170.33412089 74.50305525 174.02642994 75.04296875 177.71875 C75.25747681 179.27662231 75.25747681 179.27662231 75.47631836 180.8659668 C76.22459376 185.93684181 77.02716629 190.20040673 79.85546875 194.59375 C82.89008517 196.61682761 83.45194356 196.84393577 86.84949303 196.84708309 C87.66401385 196.85269849 88.47853467 196.85831388 89.31773794 196.86409944 C90.21217977 196.86011835 91.1066216 196.85613726 92.02816772 196.85203552 C92.97867087 196.85571123 93.92917402 196.85938693 94.90848029 196.86317402 C98.10749779 196.87318924 101.30634267 196.86899621 104.50537109 196.86499023 C106.79324021 196.86937525 109.08110773 196.87467659 111.36897278 196.88082886 C116.30281934 196.8923474 121.23662285 196.89778963 126.17048264 196.89871025 C133.96848224 196.90064671 141.76639248 196.91867648 149.56436157 196.93946838 C160.49472476 196.96725715 171.42508304 196.99023372 182.35546875 197.00708008 C183.39617653 197.0086891 183.39617653 197.0086891 184.4579087 197.01033062 C192.19762506 197.02214938 199.9373422 197.03235465 207.67706299 197.04077148 C210.48295087 197.04384534 213.28883873 197.04693414 216.09472656 197.05004883 C216.78708135 197.05081417 217.47943613 197.05157951 218.19277136 197.05236804 C229.73600204 197.06544828 241.27916889 197.09024274 252.82235873 197.12379223 C260.57758866 197.14561202 268.33267382 197.15362237 276.08793235 197.15139949 C280.90975592 197.15306336 285.73148458 197.16709434 290.55327415 197.18461227 C292.79262415 197.19022332 295.03199372 197.19068646 297.27134514 197.18567467 C300.32404919 197.1795579 303.37615095 197.1917208 306.42880249 197.20848083 C307.76377307 197.19916311 307.76377307 197.19916311 309.12571275 197.18965715 C313.84559209 197.23700438 317.03679418 197.49574578 320.85546875 200.59375 C322.46394057 203.81069364 322.46856024 207.11512222 321.85546875 210.59375 C319.67972459 213.28480198 317.94481019 215.04907928 314.85546875 216.59375 C311.84403242 216.6986217 308.85536813 216.74154267 305.84339905 216.74092102 C304.89798372 216.74459771 303.9525684 216.7482744 302.97850412 216.7520625 C299.7904329 216.76313116 296.60239423 216.76694862 293.41430664 216.77075195 C291.13632096 216.77701439 288.85833631 216.78366099 286.58035278 216.79066467 C280.37538862 216.80809922 274.17043218 216.81863394 267.96544957 216.8268702 C264.08884182 216.83201702 260.21223647 216.83809302 256.33563042 216.84438133 C245.59804169 216.86125761 234.8604567 216.87589042 224.12285709 216.88313007 C221.33540406 216.88503993 218.54795104 216.88696026 215.76049805 216.88891602 C214.72130281 216.88964163 214.72130281 216.88964163 213.66111373 216.8903819 C202.4524307 216.89867208 191.24385475 216.92398943 180.03521843 216.95649669 C168.52139864 216.98961588 157.00764923 217.00725102 145.49378008 217.01077431 C139.03178829 217.0131239 132.56996551 217.02207217 126.10801888 217.04723549 C120.02346459 217.0705448 113.93919021 217.0747377 107.85460281 217.06447411 C105.62582022 217.06397927 103.39702372 217.07028406 101.16828346 217.08403015 C75.46012464 217.23366572 75.46012464 217.23366572 64.609375 207.765625 C60.15510404 202.24986853 58.17314288 196.09955908 56.91796875 189.21875 C56.75377441 188.35813965 56.58958008 187.4975293 56.42041016 186.61083984 C54.86220703 178.16389212 53.64947351 169.66450607 52.43728638 161.16241455 C50.22098415 145.62628937 47.7100158 130.13942353 45.1900177 114.65028763 C41.93948108 94.66860524 38.76224438 74.68348294 35.8828125 54.64453125 C34.34091514 43.94011989 32.60545322 33.2658351 30.85546875 22.59375 C30.19546875 22.59375 29.53546875 22.59375 28.85546875 22.59375 C28.85546875 21.93375 28.85546875 21.27375 28.85546875 20.59375 C23.05637516 19.57970085 17.48216632 19.51580832 11.60546875 19.59375 C-8.19295534 19.68300167 -8.19295534 19.68300167 -12.83203125 17.09375 C-14.48318201 13.94870094 -14.7123189 11.42152321 -14.87109375 7.91015625 C-12.69511707 0.97276822 -6.41062815 -0.14432302 0 0 Z " fill="#FDCF05" transform="translate(96.14453125,106.40625)"/>
<path d="M0 0 C2.98082979 1.49319034 5.70129211 3.32820515 8.47265625 5.17578125 C8.47265625 5.83578125 8.47265625 6.49578125 8.47265625 7.17578125 C9.13265625 7.17578125 9.79265625 7.17578125 10.47265625 7.17578125 C11.28764187 8.77868655 12.09955552 10.38315403 12.91015625 11.98828125 C13.58884766 13.32826172 13.58884766 13.32826172 14.28125 14.6953125 C17.5104696 21.41844182 17.42288035 28.27870173 15.03515625 35.30078125 C12.17792272 41.68931397 7.40811578 46.16402311 1.203125 49.3359375 C-5.83878891 51.98744624 -13.41297185 52.39902164 -20.41015625 49.40625 C-26.36122349 45.94760391 -32.1824136 41.32866359 -34.65234375 34.73828125 C-36.63373291 26.6004329 -36.13305562 18.76675361 -32.52734375 11.17578125 C-25.66941766 0.68718841 -11.9672684 -3.90277223 0 0 Z M-15.52734375 19.80078125 C-16.82353364 22.87923225 -17.01023238 24.86454493 -16.52734375 28.17578125 C-15.17433095 30.77893119 -15.17433095 30.77893119 -12.52734375 32.17578125 C-9.55045758 32.36404283 -7.50602214 31.89642925 -4.52734375 31.17578125 C-2.20155274 27.68709474 -2.10868918 26.27859606 -2.52734375 22.17578125 C-3.36067708 19.67578125 -3.36067708 19.67578125 -5.52734375 18.17578125 C-9.35369538 17.39456779 -12.4344009 17.28776519 -15.52734375 19.80078125 Z " fill="#FACE08" transform="translate(390.52734375,341.82421875)"/>
<path d="M0 0 C0.99 0.66 1.98 1.32 3 2 C3 2.66 3 3.32 3 4 C3.66 4 4.32 4 5 4 C5.81837442 5.41328129 6.62946219 6.83078346 7.4375 8.25 C8.11619141 9.43335938 8.11619141 9.43335938 8.80859375 10.640625 C12.20313181 17.36292331 11.72068627 24.49934492 9.5625 31.5625 C6.845975 38.38250818 2.23392716 42.87586027 -4.3046875 46.15625 C-12.22929854 49.11769634 -18.88335546 48.6888236 -26.5390625 45.3203125 C-32.97207193 41.86895189 -37.74365894 37.41505448 -40.375 30.51953125 C-42.48872093 21.99859375 -41.38304678 14.53436144 -37 7 C-36.34 6.01 -35.68 5.02 -35 4 C-34.34 4 -33.68 4 -33 4 C-33 3.34 -33 2.68 -33 2 C-22.86318063 -5.72329095 -10.9986901 -6.39838872 0 0 Z M-21 16.625 C-22.26498755 19.62934544 -22.34386442 21.76767442 -22 25 C-20.25994448 28.31375865 -20.25994448 28.31375865 -16.6875 28.9375 C-12.98822157 29.2980553 -12.98822157 29.2980553 -10.0625 27.4375 C-7.76006183 25.13796948 -7.76006183 25.13796948 -7.5 22 C-8.06499783 18.61001305 -8.31939276 17.17799338 -11 15 C-14.82635163 14.21878654 -17.90705715 14.11198394 -21 16.625 Z " fill="#FBCE07" transform="translate(223,345)"/>
<path d="M0 0 C73.92 0.33 147.84 0.66 224 1 C223.34 3.31 222.68 5.62 222 8 C221.49760506 11.30332879 221.08433924 14.60320232 220.70117188 17.921875 C220.09590179 22.90409821 220.09590179 22.90409821 219 24 C216.2944304 24.11025622 213.61383959 24.15496698 210.90733337 24.15821838 C210.04893295 24.16315636 209.19053253 24.16809434 208.30611998 24.17318195 C205.40712567 24.18863622 202.50815363 24.1969389 199.60913086 24.20532227 C197.54004213 24.21489457 195.47095538 24.22490426 193.40187073 24.23532104 C187.76575868 24.2624464 182.1296382 24.28341451 176.49349666 24.30332303 C170.61044052 24.32513569 164.72741061 24.35254739 158.84437561 24.37937927 C147.69547673 24.42937019 136.54656335 24.4742852 125.397636 24.51740164 C112.70859869 24.56671944 100.0195877 24.62165774 87.33057582 24.67708123 C61.22040842 24.79099948 35.11021578 24.89781697 9 25 C8.67 25.66 8.34 26.32 8 27 C7.34 27 6.68 27 6 27 C6 29.97 6 32.94 6 36 C73.98 36.33 141.96 36.66 212 37 C211.67 38.98 211.34 40.96 211 43 C210.67 42.01 210.34 41.02 210 40 C208.9747843 40.00276538 207.9495686 40.00553076 206.89328575 40.00837994 C181.95573915 40.07495753 157.01820407 40.12426728 132.08058739 40.15543652 C120.02097796 40.17091008 107.96142723 40.19200903 95.90185547 40.22631836 C85.39161059 40.25620564 74.8814082 40.27557144 64.371122 40.28226548 C58.80521613 40.28617886 53.23943184 40.29538616 47.67356491 40.31719017 C42.43530955 40.33754462 37.19722594 40.34383586 31.95893478 40.33932304 C30.03605211 40.34014871 28.11316373 40.3461205 26.19031525 40.35761642 C23.56476593 40.3725442 20.93986489 40.36895257 18.31430054 40.36076355 C17.55358793 40.36950207 16.79287532 40.3782406 16.00911081 40.38724393 C11.27214495 40.34731509 8.01697692 39.52279506 4 37 C2.00340735 33.96170683 1.85463467 31.41520645 2.0625 27.875 C3 24 3 24 5.0251112 22.28273296 C8.88915935 20.61660617 12.40215581 20.57618284 16.53572083 20.60127258 C17.82232268 20.59130234 17.82232268 20.59130234 19.13491648 20.58113068 C22.0077897 20.56248458 24.88024702 20.56510707 27.75317383 20.56762695 C29.81300445 20.55861079 31.87282968 20.54828393 33.93264771 20.53674316 C39.52516258 20.50913006 45.11757578 20.49988276 50.71015 20.49388909 C56.5545037 20.48451668 62.39878111 20.4583142 68.24308777 20.43388367 C79.31039593 20.39018384 90.37768933 20.36165824 101.44505757 20.33856028 C114.0447358 20.31152731 126.64433741 20.26761461 139.24396098 20.22227156 C165.16259913 20.12937537 191.08126132 20.05771738 217 20 C217.12117187 19.34773438 217.24234375 18.69546875 217.3671875 18.0234375 C217.61855469 16.71246094 217.61855469 16.71246094 217.875 15.375 C218.11863281 14.08722656 218.11863281 14.08722656 218.3671875 12.7734375 C219.05291271 9.7680986 219.98486545 6.90891497 221 4 C219.89140279 3.99668985 218.78280558 3.99337971 217.64061451 3.98996925 C190.6838148 3.90902662 163.72707228 3.81672691 136.77035236 3.71247292 C123.73436472 3.66232055 110.69838345 3.61587791 97.66235352 3.578125 C86.30205488 3.54521572 74.94180531 3.50539036 63.58156079 3.45720994 C57.56469917 3.43193443 51.54787014 3.4101562 45.53096962 3.39665604 C39.87000542 3.38384532 34.20915294 3.36180145 28.5482502 3.33261681 C26.46855119 3.32353332 24.38883419 3.31784901 22.30911636 3.31578636 C19.47310607 3.31246932 16.6374136 3.29700678 13.8014679 3.2784729 C12.97558727 3.28040763 12.14970665 3.28234237 11.29879934 3.28433573 C7.09935674 3.24321271 3.77543742 2.90251392 0 1 C0 0.67 0 0.34 0 0 Z " fill="#F4D019" transform="translate(174,172)"/>
<path d="M0 0 C62.04 0 124.08 0 188 0 C188 7 188 7 187 9 C186.34 9 185.68 9 185 9 C184.92652344 10.39025391 184.92652344 10.39025391 184.8515625 11.80859375 C184.77679688 13.00613281 184.70203125 14.20367187 184.625 15.4375 C184.55539062 16.63246094 184.48578125 17.82742188 184.4140625 19.05859375 C184.27742187 20.02925781 184.14078125 20.99992187 184 22 C181.03674256 23.48162872 178.3858698 23.1226073 175.07785034 23.12025452 C174.35743628 23.12110894 173.63702221 23.12196337 172.89477742 23.12284368 C170.46872645 23.12449736 168.04274387 23.11897895 165.61669922 23.11352539 C163.88243613 23.11324347 162.14817293 23.11340135 160.41390991 23.1139679 C155.69516019 23.11425567 150.9764357 23.10836209 146.25769186 23.10139394 C141.3302533 23.09515716 136.40281421 23.09455634 131.47537231 23.09336853 C122.13978434 23.09025617 112.80420802 23.08204407 103.46862519 23.07201904 C92.84242223 23.06085494 82.21621872 23.0553467 71.59001136 23.05032361 C49.72666772 23.03986138 27.86333459 23.02226378 6 23 C6 23.66 6 24.32 6 25 C5.34 25 4.68 25 4 25 C4.66 28.63 5.32 32.26 6 36 C9.4828521 37.1609507 12.60908032 37.1531232 16.23222351 37.15821838 C16.97390976 37.16315636 17.71559601 37.16809434 18.47975761 37.17318195 C20.97177297 37.18857331 23.46376253 37.196922 25.95581055 37.20532227 C27.73948393 37.2148995 29.52315503 37.22490949 31.30682373 37.23532104 C36.15565045 37.2623929 41.00448692 37.28339012 45.85334754 37.30332303 C50.91826649 37.32516851 55.98315529 37.35256423 61.04804993 37.37937927 C70.64211908 37.42932562 80.23620494 37.47425725 89.83030683 37.51740164 C100.75159117 37.56675742 111.67284526 37.6216817 122.59410036 37.67708123 C145.06270536 37.79093109 167.53133937 37.89776359 190 38 C190 38.33 190 38.66 190 39 C166.35652274 39.07005063 142.71306102 39.12296884 119.06950092 39.15543652 C108.09162746 39.17091185 97.11381843 39.19201415 86.13598633 39.22631836 C76.56880389 39.25620026 67.00166812 39.27557015 57.43444031 39.28226548 C52.36767087 39.28617978 47.30103494 39.29539285 42.23430824 39.31719017 C37.46635608 39.33753617 32.69859257 39.3438376 27.93060112 39.33932304 C26.17984111 39.34014909 24.42907486 39.34612596 22.67835236 39.35761642 C20.28890138 39.37253117 17.90016372 39.36895758 15.51069641 39.36076355 C14.81710803 39.36950207 14.12351965 39.3782406 13.40891343 39.38724393 C7.9455087 39.33656521 4.81708957 37.81708957 1 34 C0.62890625 32.01171875 0.62890625 32.01171875 0.5625 29.6875 C0.50255859 28.54861328 0.50255859 28.54861328 0.44140625 27.38671875 C1.29082855 23.75736891 3.14967568 22.33499737 6 20 C9.33266163 19.38476086 9.33266163 19.38476086 13.20698547 19.39872742 C13.92179571 19.39445529 14.63660594 19.39018317 15.37307709 19.38578159 C17.76278801 19.37756059 20.15073467 19.40501876 22.5402832 19.43237305 C24.25528421 19.43378372 25.97028823 19.43299115 27.68528748 19.43016052 C32.33800025 19.42872572 36.99006875 19.45812576 41.64263177 19.49303031 C46.50595856 19.52428317 51.36930007 19.52722371 56.23271179 19.53315735 C65.44083926 19.54869893 74.64866997 19.5897317 83.85666674 19.6399048 C94.34021723 19.69578842 104.82378187 19.7232823 115.30744421 19.74838197 C136.87179512 19.80064724 158.43587887 19.88859571 180 20 C180.18175781 19.3709375 180.36351562 18.741875 180.55078125 18.09375 C182.15552584 12.62938892 183.93585454 7.30780262 186 2 C185.05963237 2.00184359 184.11926474 2.00368717 183.15040112 2.00558662 C160.29185191 2.04994342 137.43330827 2.0828314 114.57472515 2.10362434 C103.52058573 2.11394636 92.46647471 2.12802435 81.41235352 2.15087891 C71.78000092 2.17078448 62.14766888 2.1837097 52.51529628 2.18817699 C47.41285299 2.19078918 42.31046853 2.19694811 37.20804405 2.21146011 C32.40893644 2.22499931 27.60991209 2.22923009 22.8107872 2.22621536 C21.04629248 2.22676717 19.28179507 2.23076636 17.51731682 2.23841095 C15.11415818 2.24831496 12.71131673 2.24598564 10.30815125 2.24050903 C9.25319372 2.24924756 9.25319372 2.24924756 8.17692393 2.25816262 C4.5475804 2.23570128 3.11318771 2.07545847 0 0 Z " fill="#948116" transform="translate(187,247)"/>
<path d="M0 0 C29.85255628 0.05909439 59.70504522 0.13340447 89.55750687 0.22898628 C93.08106217 0.24025458 96.60461787 0.25139301 100.12817383 0.26245117 C100.82965675 0.26465486 101.53113967 0.26685854 102.25387964 0.269129 C113.61541052 0.30451107 124.97694134 0.32937006 136.3385069 0.35034702 C147.99465405 0.37210185 159.65072602 0.40537219 171.30681306 0.44870156 C177.85465679 0.472676 184.4024212 0.49137712 190.95030785 0.49761391 C197.11033873 0.50364563 203.27016655 0.52357626 209.43012238 0.55427551 C211.69365087 0.56308644 213.95720586 0.56677204 216.22075081 0.56500816 C219.30647663 0.56336247 222.39157823 0.57999489 225.47721863 0.60127258 C226.37702727 0.59642501 227.27683591 0.59157743 228.20391148 0.58658296 C232.94240024 0.64066484 236.16926395 0.88435884 240 4 C241.60847182 7.21694364 241.61309149 10.52137222 241 14 C238.82425584 16.69105198 237.08934144 18.45532928 234 20 C230.97054524 20.10052519 227.96392516 20.13893353 224.93409729 20.13371277 C223.50750751 20.1371111 223.50750751 20.1371111 222.05209774 20.14057809 C218.84534795 20.1469398 215.63864019 20.14608734 212.43188477 20.14526367 C210.14091944 20.1482538 207.84995463 20.15165598 205.55899048 20.15544128 C199.32150041 20.16430006 193.08402404 20.16662017 186.84652829 20.16725707 C181.64740253 20.16820457 176.44827999 20.171881 171.24915546 20.17542917 C159.68902209 20.18311465 148.12889656 20.18609714 136.568761 20.18542381 C135.52768451 20.18536388 135.52768451 20.18536388 134.46557617 20.18530273 C133.77068086 20.18526185 133.07578556 20.18522097 132.35983282 20.18517885 C121.09404996 20.18477227 109.8283005 20.19434431 98.56252731 20.2084411 C87.00354897 20.22279102 75.44459126 20.22952874 63.88560337 20.22884732 C57.39262361 20.22859175 50.89968164 20.23147569 44.40670967 20.24202538 C38.3025401 20.25167204 32.19844472 20.25180922 26.09427261 20.24450874 C23.84923762 20.24345864 21.60419809 20.24585083 19.35917091 20.2518692 C16.3036541 20.2595321 13.24839716 20.25498235 10.19288635 20.24723816 C8.84815407 20.2549535 8.84815407 20.2549535 7.47625548 20.26282471 C6.65988456 20.25822592 5.84351364 20.25362712 5.00240421 20.24888897 C4.29682882 20.24910634 3.59125343 20.24932371 2.86429697 20.24954766 C1 20 1 20 -2 18 C113.83 17.505 113.83 17.505 232 17 C232 16.67 232 16.34 232 16 C233.98 16 235.96 16 238 16 C238 12.37 238 8.74 238 5 C235.03 4.67 232.06 4.34 229 4 C229 3.67 229 3.34 229 3 C153.76 3 78.52 3 1 3 C0.67 2.01 0.34 1.02 0 0 Z " fill="#7A640D" transform="translate(177,303)"/>
<path d="M0 0 C73.92 0.33 147.84 0.66 224 1 C222.08447637 8.02358664 220.09192418 15.02691939 218 22 C148.7 22 79.4 22 8 22 C8 21.67 8 21.34 8 21 C111.455 20.505 111.455 20.505 217 20 C217.66 16.7 218.32 13.4 219 10 C219.62486441 7.98654801 220.27118911 5.97820098 221 4 C219.89140279 3.99668985 218.78280558 3.99337971 217.64061451 3.98996925 C190.6838148 3.90902662 163.72707228 3.81672691 136.77035236 3.71247292 C123.73436472 3.66232055 110.69838345 3.61587791 97.66235352 3.578125 C86.30205488 3.54521572 74.94180531 3.50539036 63.58156079 3.45720994 C57.56469917 3.43193443 51.54787014 3.4101562 45.53096962 3.39665604 C39.87000542 3.38384532 34.20915294 3.36180145 28.5482502 3.33261681 C26.46855119 3.32353332 24.38883419 3.31784901 22.30911636 3.31578636 C19.47310607 3.31246932 16.6374136 3.29700678 13.8014679 3.2784729 C12.97558727 3.28040763 12.14970665 3.28234237 11.29879934 3.28433573 C7.09935674 3.24321271 3.77543742 2.90251392 0 1 C0 0.67 0 0.34 0 0 Z " fill="#77680E" transform="translate(174,172)"/>
<path d="M0 0 C1.45132797 4.53900627 -0.05952981 7.86757172 -1.625 12.1875 C-2.19517341 13.82596717 -2.76283126 15.46531164 -3.328125 17.10546875 C-3.61365234 17.93095215 -3.89917969 18.75643555 -4.19335938 19.60693359 C-5.35201268 23.04431848 -6.37375102 26.51410654 -7.375 30 C-7.77830432 31.38161015 -8.18196839 32.76311533 -8.5859375 34.14453125 C-9.36736636 36.82198964 -10.14401558 39.50067314 -10.91503906 42.18115234 C-11.92880132 45.6876995 -12.96315285 49.18771673 -14 52.6875 C-14.3201709 53.81091797 -14.6403418 54.93433594 -14.97021484 56.09179688 C-15.28941895 57.15849609 -15.60862305 58.22519531 -15.9375 59.32421875 C-16.21464844 60.27385498 -16.49179687 61.22349121 -16.77734375 62.2019043 C-18.29865023 65.68347251 -20.08807984 68.5541133 -23 71 C-25.79584726 71.60073082 -27.73479265 71.79962091 -30.52174377 71.73498535 C-31.27048372 71.74152303 -32.01922366 71.74806071 -32.79065269 71.7547965 C-35.2955901 71.76934474 -37.79818463 71.74106622 -40.30297852 71.71289062 C-42.10016274 71.7144726 -43.89734629 71.71866784 -45.69451904 71.72528076 C-50.57276167 71.73554837 -55.45016039 71.70848123 -60.32826734 71.67422676 C-65.43130259 71.64415567 -70.53432688 71.64650286 -75.63743591 71.64489746 C-84.20627247 71.63751266 -92.77478856 71.6075805 -101.34350586 71.5625 C-112.34565282 71.50473541 -123.34754182 71.48405157 -134.34982395 71.4751358 C-143.80492968 71.46717759 -153.25997925 71.44217485 -162.71504474 71.41444206 C-165.75637926 71.40624333 -168.79771179 71.40039248 -171.8390522 71.39485168 C-176.61530336 71.38506629 -181.39139814 71.36466069 -186.16757202 71.33597565 C-187.92195663 71.32692937 -189.67636228 71.32125224 -191.43076897 71.31916046 C-193.82241642 71.31566887 -196.21367276 71.29990367 -198.60523987 71.28088379 C-199.30222144 71.28261675 -199.99920302 71.28434972 -200.71730524 71.2861352 C-204.3108244 71.24315739 -206.93944677 70.95524173 -210 69 C-207.04168715 67.52084357 -204.05322522 67.88648398 -200.81210327 67.91770935 C-200.06310434 67.92093848 -199.31410541 67.92416761 -198.54240954 67.92749459 C-196.01959597 67.93960844 -193.4968892 67.95897315 -190.97412109 67.97827148 C-189.17089574 67.98841017 -187.36766784 67.99810429 -185.56443787 68.00738525 C-180.65765304 68.03390734 -175.75092717 68.06667841 -170.84418821 68.10053515 C-165.72057879 68.13483759 -160.59693771 68.16344335 -155.47329712 68.19264221 C-145.76581946 68.24883502 -136.05838144 68.31018313 -126.35094702 68.37336355 C-115.30155736 68.4450285 -104.25213592 68.51097655 -93.20270801 68.57643402 C-70.46843077 68.71124185 -47.73420314 68.85326275 -25 69 C-25 68.01 -25 67.02 -25 66 C-24.34 66 -23.68 66 -23 66 C-21.05883025 62.45595564 -20.35621737 59.16534897 -19.66015625 55.21875 C-19 53 -19 53 -17.5625 51.1796875 C-15.45050046 48.23344814 -14.76745658 45.09510652 -13.9375 41.625 C-13.03011482 37.96630636 -12.11494924 34.34360277 -10.91796875 30.765625 C-9.84485718 27.53259098 -9.4050868 24.37572333 -9 21 C-8.34 21 -7.68 21 -7 21 C-7 19.35 -7 17.7 -7 16 C-6.01 15.67 -5.02 15.34 -4 15 C-3.87882813 14.08476562 -3.75765625 13.16953125 -3.6328125 12.2265625 C-3.38144531 10.44378906 -3.38144531 10.44378906 -3.125 8.625 C-2.88136719 6.84996094 -2.88136719 6.84996094 -2.6328125 5.0390625 C-2 2 -2 2 0 0 Z " fill="#D4B32D" transform="translate(402,214)"/>
<path d="M0 0 C0.77396622 0.00233139 1.54793243 0.00466278 2.34535217 0.00706482 C3.97505788 0.01676649 5.60473168 0.03847106 7.23413086 0.0715332 C9.71194123 0.12088035 12.1877583 0.13301544 14.66601562 0.13867188 C16.25653127 0.15276337 17.84702987 0.16896975 19.4375 0.1875 C20.5362571 0.19554405 20.5362571 0.19554405 21.6572113 0.20375061 C26.36013878 0.31103081 30.31196398 1.09148642 34.78515625 2.55859375 C32.05409114 3.46894879 30.48622386 3.68075088 27.6809082 3.67211914 C26.44997185 3.67200584 26.44997185 3.67200584 25.19416809 3.67189026 C23.87215645 3.66414833 23.87215645 3.66414833 22.5234375 3.65625 C21.6176445 3.65483505 20.7118515 3.6534201 19.77861023 3.65196228 C16.88492534 3.64636376 13.99131776 3.63381156 11.09765625 3.62109375 C9.13606883 3.61607856 7.17448019 3.61151568 5.21289062 3.60742188 C0.40361604 3.59639482 -4.40560075 3.57913122 -9.21484375 3.55859375 C-10.90095223 7.45523027 -11.41318512 10.2942544 -11.21484375 14.55859375 C-7.44662608 15.74795805 -3.69385627 15.74510904 0.21875 15.8046875 C1.68685505 15.83761995 3.15495387 15.8708317 4.62304688 15.90429688 C6.9248435 15.95169331 9.22661374 15.99616121 11.52856445 16.03540039 C13.75888473 16.07524884 15.98870726 16.12674996 18.21875 16.1796875 C18.90223007 16.18810165 19.58571014 16.19651581 20.28990173 16.20518494 C24.2049248 16.30582468 27.25056879 16.85621928 30.78515625 18.55859375 C30.78515625 19.21859375 30.78515625 19.87859375 30.78515625 20.55859375 C31.44515625 20.55859375 32.10515625 20.55859375 32.78515625 20.55859375 C33.12426619 22.5993089 33.45618329 24.64121996 33.78515625 26.68359375 C34.06359375 28.38902344 34.06359375 28.38902344 34.34765625 30.12890625 C34.75471674 33.31996977 34.86325527 36.34677166 34.78515625 39.55859375 C35.44515625 39.55859375 36.10515625 39.55859375 36.78515625 39.55859375 C36.78515625 41.53859375 36.78515625 43.51859375 36.78515625 45.55859375 C37.44515625 45.55859375 38.10515625 45.55859375 38.78515625 45.55859375 C38.90632813 46.77933594 39.0275 48.00007813 39.15234375 49.2578125 C40.01139253 57.74967834 40.96497631 66.17976284 42.34765625 74.60546875 C42.9338257 78.56211253 43.25663595 82.52316422 43.5390625 86.51171875 C43.57032813 88.54964698 43.57032813 88.54964698 44.78515625 89.55859375 C45.06844124 90.9331192 45.29865809 92.31870716 45.50390625 93.70703125 C45.63152344 94.5475 45.75914062 95.38796875 45.890625 96.25390625 C46.02082031 97.13820313 46.15101563 98.0225 46.28515625 98.93359375 C46.54320131 100.67092682 46.80352524 102.40792334 47.06640625 104.14453125 C47.18048828 104.91845215 47.29457031 105.69237305 47.41210938 106.48974609 C47.76788667 108.74488641 47.76788667 108.74488641 48.78515625 111.55859375 C49.09056294 114.65083651 49.29347936 117.74371094 49.50390625 120.84375 C49.62012362 123.52241691 49.62012362 123.52241691 50.78515625 125.55859375 C50.86824263 126.93407531 50.89251641 128.31345171 50.8828125 129.69140625 C50.87797852 130.89990234 50.87797852 130.89990234 50.87304688 132.1328125 C50.86047852 133.39544922 50.86047852 133.39544922 50.84765625 134.68359375 C50.84314453 135.53308594 50.83863281 136.38257813 50.83398438 137.2578125 C50.82218499 139.35810284 50.80424931 141.45835705 50.78515625 143.55859375 C50.45515625 143.55859375 50.12515625 143.55859375 49.78515625 143.55859375 C39.64696054 81.29330551 39.64696054 81.29330551 35.8125 54.609375 C34.27060264 43.90496364 32.53514072 33.23067885 30.78515625 22.55859375 C30.12515625 22.55859375 29.46515625 22.55859375 28.78515625 22.55859375 C28.78515625 21.89859375 28.78515625 21.23859375 28.78515625 20.55859375 C22.98606266 19.5445446 17.41185382 19.48065207 11.53515625 19.55859375 C-8.26326784 19.64784542 -8.26326784 19.64784542 -12.90234375 17.05859375 C-14.55349451 13.91354469 -14.7826314 11.38636696 -14.94140625 7.875 C-12.75051737 0.89006931 -6.44146287 -0.17128896 0 0 Z M-8.21484375 12.55859375 C-7.55484375 12.55859375 -6.89484375 12.55859375 -6.21484375 12.55859375 C-6.21484375 13.21859375 -6.21484375 13.87859375 -6.21484375 14.55859375 C-6.87484375 14.55859375 -7.53484375 14.55859375 -8.21484375 14.55859375 C-8.21484375 13.89859375 -8.21484375 13.23859375 -8.21484375 12.55859375 Z " fill="#9F861B" transform="translate(96.21484375,106.44140625)"/>
<path d="M0 0 C0.94263474 -0.0034177 1.88526948 -0.0068354 2.85646892 -0.01035666 C6.02284466 -0.01695817 9.18837732 0.00507842 12.35467529 0.0269165 C14.62124613 0.02804449 16.88781844 0.02741208 19.15438843 0.02514648 C25.31523954 0.0239965 31.47578058 0.04755207 37.63655949 0.07544231 C44.07210287 0.10040852 50.50765297 0.1027942 56.9432373 0.10754395 C67.74743674 0.11857301 78.55150872 0.14357587 89.35565186 0.17926025 C100.48390126 0.21597689 111.61211973 0.24429033 122.74041748 0.2612915 C123.76935461 0.26286784 123.76935461 0.26286784 124.81907836 0.26447603 C128.26033201 0.26969618 131.70158589 0.27475102 135.14283991 0.27972364 C163.69106779 0.32118987 192.23917568 0.3919393 220.78729248 0.48101807 C220.78729248 0.81101807 220.78729248 1.14101807 220.78729248 1.48101807 C219.60985316 1.48340642 218.43241385 1.48579477 217.21929455 1.4882555 C189.2863912 1.54558154 161.35356083 1.61828792 133.42074857 1.71000435 C129.98474339 1.72127288 126.5487378 1.73241127 123.11273193 1.74346924 C122.08663616 1.74677476 122.08663616 1.74677476 121.03981117 1.75014707 C109.95499011 1.78554581 98.87016911 1.81039537 87.78531244 1.83136509 C76.41619568 1.85310666 65.04716348 1.88636497 53.6781047 1.92971963 C47.29017362 1.95371218 40.90232413 1.97240136 34.51434898 1.97863197 C28.50698599 1.9846556 22.49983192 2.00455633 16.49254608 2.03529358 C14.28300486 2.04411765 12.07343639 2.04778743 9.86387825 2.04602623 C6.85626801 2.04438524 3.84930363 2.06097195 0.84178162 2.08229065 C-0.04050702 2.07744307 -0.92279565 2.0725955 -1.83182031 2.06760103 C-7.13672125 2.08758206 -7.13672125 2.08758206 -11.21270752 5.48101807 C-11.21270752 8.45101807 -11.21270752 11.42101807 -11.21270752 14.48101807 C100.16229248 14.97601807 100.16229248 14.97601807 213.78729248 15.48101807 C213.78729248 18.45101807 213.78729248 21.42101807 213.78729248 24.48101807 C213.12729248 24.48101807 212.46729248 24.48101807 211.78729248 24.48101807 C211.45729248 25.47101807 211.12729248 26.46101807 210.78729248 27.48101807 C210.09979248 25.91851807 210.09979248 25.91851807 209.78729248 23.48101807 C210.74093729 21.12835871 211.73803552 18.79262017 212.78729248 16.48101807 C211.07663038 16.48378345 211.07663038 16.48378345 209.33140945 16.48660469 C181.60725546 16.53096486 153.88310606 16.56385108 126.1589241 16.58464241 C123.49207812 16.58669544 120.82523216 16.5887648 118.15838623 16.59088135 C117.16408537 16.59166828 117.16408537 16.59166828 116.14969763 16.59247111 C105.4114881 16.60117775 94.67329994 16.61694915 83.93510309 16.63532366 C72.91972397 16.6540155 61.90435667 16.66498353 50.88896251 16.66919506 C44.70052285 16.67180685 38.51213172 16.67796333 32.32370758 16.69247818 C26.50273481 16.70602097 20.68183069 16.7102474 14.86084366 16.70723343 C12.72104393 16.70778507 10.58124198 16.71178211 8.44145584 16.71942902 C5.52631506 16.72933853 2.61143553 16.72700153 -0.30371094 16.7215271 C-1.58191967 16.73026562 -1.58191967 16.73026562 -2.8859508 16.73918068 C-9.95682498 16.70314114 -9.95682498 16.70314114 -13.21270752 14.48101807 C-13.32138054 12.89922192 -13.39860579 11.31524654 -13.46270752 9.73101807 C-13.50911377 8.84929932 -13.55552002 7.96758057 -13.60333252 7.05914307 C-13.21270752 4.48101807 -13.21270752 4.48101807 -11.76408768 2.34994888 C-7.961667 -0.4353911 -4.6019128 -0.06070484 0 0 Z " fill="#EDD134" transform="translate(185.21270751953125,156.51898193359375)"/>
<path d="M0 0 C0.33 0 0.66 0 1 0 C2.26269513 8.10743964 2.26269513 8.10743964 2.82885742 11.74635315 C3.62468553 16.86121115 4.42186915 21.97585101 5.22167969 27.09008789 C7.98216928 44.76374419 7.98216928 44.76374419 9.25 53.56640625 C9.42370117 54.75572754 9.59740234 55.94504883 9.77636719 57.17041016 C10.08250578 59.28213524 10.38059573 61.39504978 10.66894531 63.50927734 C11.40508298 68.54540773 12.30744362 72.58127504 15 77 C15.34001698 77.70349453 15.68003397 78.40698906 16.0303545 79.13180161 C19.20521993 82.14314476 22.94761354 81.53551384 27.092453 81.48101807 C28.50512348 81.48614462 28.50512348 81.48614462 29.94633275 81.49137473 C33.11581305 81.49798616 36.28445459 81.47592343 39.45385742 81.45410156 C41.72028076 81.45297379 43.98670556 81.45360557 46.25312805 81.45587158 C52.4181702 81.4570224 58.58290301 81.43345342 64.74787307 81.40557575 C71.18609166 81.38062337 77.62431681 81.37822497 84.06257629 81.37347412 C94.872752 81.36244177 105.68280044 81.33743248 116.49291992 81.30175781 C127.62800527 81.2650489 138.76305973 81.23673169 149.89819336 81.21972656 C150.92752458 81.21815022 150.92752458 81.21815022 151.97765037 81.21654204 C155.42017466 81.21132193 158.86269917 81.20626709 162.30522382 81.20129442 C190.87022615 81.15981889 219.43510863 81.08906163 248 81 C248 81.33 248 81.66 248 82 C171.44 82.33 94.88 82.66 16 83 C15.67 82.01 15.34 81.02 15 80 C14.34 80 13.68 80 13 80 C10.58864329 74.30042959 9.37097846 68.96244348 8.52734375 62.83203125 C8.10527376 60.02806701 8.10527376 60.02806701 7.03393555 57.65258789 C5.2730662 53.13503287 4.68505047 48.38929686 3.875 43.625 C3.69324219 42.60921875 3.51148438 41.5934375 3.32421875 40.546875 C2.41593708 35.28840216 1.7745368 30.3359624 2 25 C1.34 25 0.68 25 0 25 C0 16.75 0 8.5 0 0 Z " fill="#E8CC3D" transform="translate(161,224)"/>
<path d="M0 0 C1.21319104 3.63957313 0.73983613 5.79347028 0.125 9.5625 C-0.14957031 11.29693359 -0.14957031 11.29693359 -0.4296875 13.06640625 C-1 16 -1 16 -2 18 C-6.29 18 -10.58 18 -15 18 C-15 17.67 -15 17.34 -15 17 C-74.73 16.67 -134.46 16.34 -196 16 C-192.35905522 13.57270348 -189.67269021 13.71032148 -185.46406555 13.7215271 C-184.68971088 13.7157347 -183.91535621 13.7099423 -183.11753625 13.70397437 C-180.5149205 13.6869279 -177.91248158 13.68409389 -175.30981445 13.68115234 C-173.44732221 13.67185737 -171.58483415 13.66168935 -169.72235107 13.65071106 C-164.65864952 13.62334843 -159.59497587 13.60824312 -154.53121972 13.59528303 C-149.24206852 13.57967985 -143.95297455 13.55288071 -138.66386414 13.5272522 C-128.64480837 13.48041451 -118.6257419 13.44369458 -108.60663241 13.41057932 C-97.20166591 13.37239315 -85.79675682 13.32297384 -74.39183867 13.27259517 C-50.92793497 13.16920111 -27.46399441 13.07996505 -4 13 C-2.68 8.71 -1.36 4.42 0 0 Z " fill="#3D3100" transform="translate(383,215)"/>
<path d="M0 0 C0.33 0 0.66 0 1 0 C1 1.98 1 3.96 1 6 C1.99 6 2.98 6 4 6 C4.04898438 7.09699219 4.09796875 8.19398438 4.1484375 9.32421875 C4.22350591 10.77866925 4.29905197 12.23309516 4.375 13.6875 C4.4059375 14.40873047 4.436875 15.12996094 4.46875 15.87304688 C4.69561756 20.01337991 5.277835 23.17731557 7 27 C9.18333562 35.28858892 9.22392407 43.47844512 9 52 C9.66 52 10.32 52 11 52 C11.25523437 52.95712891 11.25523437 52.95712891 11.515625 53.93359375 C11.75796875 54.75988281 12.0003125 55.58617187 12.25 56.4375 C12.48203125 57.26121094 12.7140625 58.08492188 12.953125 58.93359375 C13.80770679 61.19995468 13.80770679 61.19995468 16.109375 61.78515625 C16.73328125 61.85605469 17.3571875 61.92695313 18 62 C18 62.99 18 63.98 18 65 C28.56409017 70.64797923 40.30641319 69.57472835 51.9128418 69.54589844 C54.23956491 69.55464117 56.56628201 69.56512938 58.89299011 69.57722473 C65.18557457 69.60501924 71.4779622 69.60849085 77.77059913 69.60750484 C84.35564028 69.61063955 90.94059353 69.63626942 97.52558899 69.65948486 C108.57035922 69.69606444 119.61508882 69.71753748 130.65991211 69.72900391 C142.03136532 69.74084747 153.40275319 69.7610732 164.77416992 69.79248047 C165.47621092 69.79441657 166.17825192 69.79635267 166.90156689 69.79834744 C170.42383111 69.80811262 173.94609486 69.81804162 177.4683584 69.82805204 C206.6455358 69.91076325 235.8227277 69.96452303 265 70 C265 70.33 265 70.66 265 71 C234.43423629 71.11410008 203.86852135 71.20256744 173.3025955 71.25532665 C169.69277816 71.26158007 166.08296124 71.26805169 162.47314453 71.2746582 C161.75450485 71.27596976 161.03586518 71.27728131 160.29544854 71.2786326 C148.664273 71.30038024 137.03322121 71.33979817 125.40211904 71.38576398 C113.46463713 71.43254661 101.52721997 71.46029919 89.58965015 71.47044247 C82.88565763 71.47668329 76.18196301 71.49229599 69.47805786 71.52865028 C63.16780386 71.56259256 56.85794594 71.57305624 50.54760933 71.56553841 C48.23209035 71.56691371 45.91655811 71.57685625 43.60111809 71.59602737 C40.43736926 71.62093687 37.2751121 71.6149118 34.11132812 71.60127258 C33.19691232 71.61583679 32.28249651 71.630401 31.34037113 71.64540654 C24.12777748 71.56146818 19.38808549 69.25909357 14.205513 64.2738331 C6.85817303 56.5958168 6.01470036 46.39589365 4.4375 36.3125 C4.22931641 35.02666016 4.02113281 33.74082031 3.80664062 32.41601562 C3.19351341 28.61232049 2.59574482 24.80645135 2 21 C1.70657715 19.17601685 1.70657715 19.17601685 1.40722656 17.31518555 C1.22514648 16.16961182 1.04306641 15.02403809 0.85546875 13.84375 C0.69328857 12.83119141 0.5311084 11.81863281 0.36401367 10.77539062 C-0.11348798 7.13472075 -0.14373145 3.66515201 0 0 Z " fill="#F6D125" transform="translate(147,250)"/>
<path d="M0 0 C67.98 0.33 135.96 0.66 206 1 C205.67 2.65 205.34 4.3 205 6 C204.67 5.01 204.34 4.02 204 3 C202.97294071 3.00184359 201.94588142 3.00368717 200.88769913 3.00558662 C175.91746242 3.04995091 150.94723081 3.08283497 125.97696304 3.10362434 C113.90161998 3.11394469 101.82630293 3.12801949 89.75097656 3.15087891 C79.22829921 3.17078958 68.70564068 3.18371092 58.18294501 3.18817699 C52.6093079 3.19078831 47.03572467 3.19694177 41.4621048 3.21146011 C36.21895621 3.22500733 30.97588385 3.22922844 25.73271942 3.22621536 C23.80577684 3.22676681 21.87883178 3.23076123 19.9519043 3.23841095 C17.32577227 3.24832742 14.69992991 3.24598095 12.0737915 3.24050903 C11.30725321 3.24633472 10.54071492 3.2521604 9.75094819 3.25816262 C6.01199578 3.23703296 3.17287611 3.08988033 0 1 C0 0.67 0 0.34 0 0 Z " fill="#7C5A17" transform="translate(180,209)"/>
<path d="M0 0 C62.04 0 124.08 0 188 0 C188 7 188 7 187 9 C186.34 9 185.68 9 185 9 C184.34 10.32 183.68 11.64 183 13 C183.30921884 11.54096742 183.62248799 10.08279278 183.9375 8.625 C184.11152344 7.81289062 184.28554688 7.00078125 184.46484375 6.1640625 C185 4 185 4 186 2 C185.05963237 2.00184359 184.11926474 2.00368717 183.15040112 2.00558662 C160.29185191 2.04994342 137.43330827 2.0828314 114.57472515 2.10362434 C103.52058573 2.11394636 92.46647471 2.12802435 81.41235352 2.15087891 C71.78000092 2.17078448 62.14766888 2.1837097 52.51529628 2.18817699 C47.41285299 2.19078918 42.31046853 2.19694811 37.20804405 2.21146011 C32.40893644 2.22499931 27.60991209 2.22923009 22.8107872 2.22621536 C21.04629248 2.22676717 19.28179507 2.23076636 17.51731682 2.23841095 C15.11415818 2.24831496 12.71131673 2.24598564 10.30815125 2.24050903 C9.25319372 2.24924756 9.25319372 2.24924756 8.17692393 2.25816262 C4.5475804 2.23570128 3.11318771 2.07545847 0 0 Z " fill="#5A4C0E" transform="translate(187,247)"/>
<path d="M0 0 C0.888013 -0.00029205 1.776026 -0.00058411 2.69094849 -0.00088501 C5.62910702 0.00050946 8.56701266 0.01607621 11.50512695 0.03173828 C13.54108034 0.03546799 15.57703551 0.03831516 17.61299133 0.04031372 C22.97405952 0.04795345 28.33501951 0.06760491 33.69604492 0.08972168 C39.16559383 0.11017275 44.63516021 0.11931386 50.10473633 0.12939453 C60.83850785 0.15085044 71.57219903 0.18499053 82.3059082 0.22705078 C82.3059082 0.55705078 82.3059082 0.88705078 82.3059082 1.22705078 C52.6059082 1.22705078 22.9059082 1.22705078 -7.6940918 1.22705078 C-7.6940918 2.21705078 -7.6940918 3.20705078 -7.6940918 4.22705078 C-8.6840918 4.72205078 -8.6840918 4.72205078 -9.6940918 5.22705078 C-9.3640918 8.19705078 -9.0340918 11.16705078 -8.6940918 14.22705078 C59.2859082 14.55705078 127.2659082 14.88705078 197.3059082 15.22705078 C197.3059082 15.55705078 197.3059082 15.88705078 197.3059082 16.22705078 C170.7766962 16.25039243 144.24748573 16.2680362 117.71826553 16.27886295 C105.40079658 16.28402321 93.083334 16.29106079 80.76586914 16.30249023 C70.03224106 16.31244529 59.2986176 16.31890618 48.56498504 16.32113928 C42.87958311 16.32244498 37.19419439 16.32552202 31.50879669 16.33278084 C26.16060399 16.33955399 20.81242998 16.34166508 15.4642334 16.34015846 C13.49859262 16.3404342 11.53295123 16.34243166 9.56731415 16.34625626 C6.88870467 16.35121368 4.21016621 16.35004143 1.53155518 16.3473053 C0.35840205 16.35167456 0.35840205 16.35167456 -0.83845115 16.35613209 C-7.89446014 16.33658115 -7.89446014 16.33658115 -10.6940918 15.22705078 C-13.46433987 10.87380381 -12.72175001 7.04913931 -11.6940918 2.22705078 C-7.7900403 -0.37565022 -4.5260838 -0.03873804 0 0 Z " fill="#F4D22B" transform="translate(188.694091796875,193.77294921875)"/>
<path d="M0 0 C1.45894464 -0.01298157 1.45894464 -0.01298157 2.9473629 -0.02622539 C6.20978511 -0.04783386 9.47050579 -0.02651076 12.73291016 -0.00532532 C15.07034115 -0.01181762 17.40776621 -0.02087799 19.74517822 -0.03231812 C26.0964613 -0.05542696 32.44714455 -0.04066319 38.79840851 -0.01784873 C44.76691977 -0.00087144 50.73536514 -0.00852896 56.70388961 -0.01483283 C69.2455056 -0.02676905 81.78685236 -0.00270522 94.32840705 0.03418525 C105.08898783 0.06507822 115.84925866 0.0674493 126.60986328 0.04838562 C139.10664339 0.02627159 151.60324975 0.02013099 164.10003853 0.04070824 C170.71492148 0.05137555 177.32963554 0.05566515 183.94451904 0.04313087 C190.16300432 0.03259403 196.38095681 0.04666638 202.5993576 0.07987404 C204.88385316 0.08809483 207.16839742 0.08778145 209.45288849 0.07839584 C212.56717415 0.06700473 215.67979282 0.08629254 218.79394531 0.11352539 C220.15605165 0.09781816 220.15605165 0.09781816 221.54567528 0.08179361 C225.95208608 0.15377593 227.84137398 0.33968851 231.46981812 3.05308819 C234.02356279 6.63372163 234.02253382 9.55837001 233.39697266 13.75517273 C232.85675612 16.16117914 232.17868335 18.41004064 231.39697266 20.75517273 C230.2008724 16.78964036 230.44528116 13.19266815 230.65478516 9.09501648 C230.57251311 6.73949912 230.57251311 6.73949912 229.26416016 5.00907898 C224.44571717 1.77326266 217.56474827 2.60918705 211.96394348 2.61473083 C211.02171659 2.61175971 210.07948969 2.60878859 209.10871047 2.60572743 C205.95584676 2.59706517 202.80302114 2.59553432 199.65014648 2.59403992 C197.38814717 2.58941024 195.12614863 2.58438538 192.864151 2.57899475 C186.72400512 2.56588903 180.58387015 2.55943015 174.44371247 2.55498409 C170.61002788 2.55205234 166.77634628 2.54794748 162.94266319 2.54347992 C152.32670753 2.53137858 141.71075446 2.52099229 131.09479237 2.51760483 C130.41620719 2.51738526 129.73762201 2.5171657 129.03847365 2.51693948 C128.01819906 2.51661206 128.01819906 2.51661206 126.97731286 2.51627803 C125.59905167 2.51583456 124.22079048 2.515388 122.8425293 2.51493835 C122.15886784 2.51471692 121.47520638 2.51449549 120.77082791 2.51426736 C109.6766464 2.51031365 98.58253034 2.49283826 87.48837415 2.46957883 C76.09650972 2.44588781 64.70468927 2.43366237 53.31279582 2.43223691 C46.91710326 2.43118652 40.52150323 2.42522822 34.12583351 2.4074173 C28.11679532 2.39100715 22.10791995 2.3887466 16.09886742 2.3975563 C13.88930197 2.3983303 11.67972801 2.39393671 9.47018433 2.38409805 C6.46294267 2.3714884 3.45628746 2.37719506 0.4490509 2.38768005 C-0.43303596 2.37962365 -1.31512283 2.37156724 -2.2239396 2.36326671 C-6.57440249 2.25224526 -6.57440249 2.25224526 -10.3175686 4.13706136 C-11.99579584 6.24958235 -12.09713438 7.77384986 -12.29052734 10.44267273 C-12.38914063 11.65503601 -12.38914063 11.65503601 -12.48974609 12.89189148 C-12.52712891 13.50677429 -12.56451172 14.1216571 -12.60302734 14.75517273 C-14.60302734 12.75517273 -14.60302734 12.75517273 -15.04052734 10.00517273 C-14.57288914 6.53128889 -13.6026098 4.64978404 -11.28889084 2.0269798 C-7.93121801 -0.50603196 -4.04880219 -0.06271787 0 0 Z " fill="#79680D" transform="translate(184.60302734375,155.2448272705078)"/>
<path d="M0 0 C0.99 0.495 0.99 0.495 2 1 C2.56978751 3.34703297 3.00421962 5.61921864 3.37890625 8 C3.56592857 9.12257202 3.56592857 9.12257202 3.75672913 10.26782227 C4.18185644 12.84359269 4.59188864 15.42148086 5 18 C5.14991394 18.93569824 5.29982788 19.87139648 5.45428467 20.83544922 C6.63663336 28.22034065 7.78922873 35.60974576 8.9375 43 C9.44404123 46.25170718 9.95108277 49.50333542 10.45864868 52.75488281 C10.79507621 54.91165363 11.13067306 57.0685542 11.46542358 59.22558594 C12.33354474 64.80449067 13.22272668 70.37899502 14.14501953 75.94921875 C14.33068985 77.07908203 14.51636017 78.20894531 14.70765686 79.37304688 C15.06186595 81.52226562 15.42051273 83.67075953 15.78440857 85.81835938 C16.62794112 90.95437321 17.20338348 95.79483897 17 101 C15.07379203 97.14758406 13.83616643 94.32817008 13.38671875 90.01171875 C12.29422507 80.12721454 11.2591174 70.84315658 7.9140625 61.43359375 C5.98159247 54.17444351 5.74152798 46.53617351 5.23364258 39.06201172 C5.05003408 36.80442372 5.05003408 36.80442372 4 34 C3.93062938 31.77181559 3.91542916 29.54165476 3.9375 27.3125 C3.94652344 26.13300781 3.95554688 24.95351562 3.96484375 23.73828125 C3.97644531 22.83464844 3.98804688 21.93101562 4 21 C3.01 21 2.02 21 1 21 C0.67 14.07 0.34 7.14 0 0 Z " fill="#A38A1B" transform="translate(144,123)"/>
<path d="M0 0 C0.77396622 0.00233139 1.54793243 0.00466278 2.34535217 0.00706482 C3.97505788 0.01676649 5.60473168 0.03847106 7.23413086 0.0715332 C9.71194123 0.12088035 12.1877583 0.13301544 14.66601562 0.13867188 C16.25653127 0.15276337 17.84702987 0.16896975 19.4375 0.1875 C20.5362571 0.19554405 20.5362571 0.19554405 21.6572113 0.20375061 C26.36013878 0.31103081 30.31196398 1.09148642 34.78515625 2.55859375 C32.05409114 3.46894879 30.48622386 3.68075088 27.6809082 3.67211914 C26.44997185 3.67200584 26.44997185 3.67200584 25.19416809 3.67189026 C23.87215645 3.66414833 23.87215645 3.66414833 22.5234375 3.65625 C21.6176445 3.65483505 20.7118515 3.6534201 19.77861023 3.65196228 C16.88492534 3.64636376 13.99131776 3.63381156 11.09765625 3.62109375 C9.13606883 3.61607856 7.17448019 3.61151568 5.21289062 3.60742188 C0.40361604 3.59639482 -4.40560075 3.57913122 -9.21484375 3.55859375 C-10.90095223 7.45523027 -11.41318512 10.2942544 -11.21484375 14.55859375 C-7.41585574 15.76284019 -3.62121656 15.74542278 0.32421875 15.8046875 C1.80599609 15.83759912 3.28776678 15.87081118 4.76953125 15.90429688 C7.09793933 15.95186067 9.42631545 15.99636464 11.75488281 16.03540039 C14.00742994 16.0749978 16.25945646 16.12653765 18.51171875 16.1796875 C19.21068268 16.18810165 19.90964661 16.19651581 20.62979126 16.20518494 C25.55839808 16.33183558 25.55839808 16.33183558 27.78515625 18.55859375 C23.51479887 18.75815162 19.24387507 18.94099551 14.97265625 19.12109375 C13.17924805 19.20520508 13.17924805 19.20520508 11.34960938 19.29101562 C-7.52073375 20.06228305 -7.52073375 20.06228305 -12.90234375 17.05859375 C-14.55349451 13.91354469 -14.7826314 11.38636696 -14.94140625 7.875 C-12.75051737 0.89006931 -6.44146287 -0.17128896 0 0 Z M-8.21484375 12.55859375 C-7.55484375 12.55859375 -6.89484375 12.55859375 -6.21484375 12.55859375 C-6.21484375 13.21859375 -6.21484375 13.87859375 -6.21484375 14.55859375 C-6.87484375 14.55859375 -7.53484375 14.55859375 -8.21484375 14.55859375 C-8.21484375 13.89859375 -8.21484375 13.23859375 -8.21484375 12.55859375 Z " fill="#9B841C" transform="translate(96.21484375,106.44140625)"/>
<path d="M0 0 C64.35 0 128.7 0 195 0 C195 0.33 195 0.66 195 1 C194.03239715 1.00423194 193.06479429 1.00846388 192.06787014 1.01282406 C168.52357412 1.11601936 144.97930875 1.22476809 121.43506527 1.33933926 C110.04924982 1.39461644 98.66343124 1.44808937 87.27758789 1.49731445 C77.35365544 1.54022375 67.42974554 1.5865187 57.50584799 1.63687855 C52.25128588 1.66342515 46.99672809 1.6882768 41.74213982 1.70907402 C36.79527505 1.72870679 31.848453 1.7528702 26.90162659 1.78049088 C25.08722271 1.78982621 23.27280948 1.797514 21.45839119 1.80341911 C18.97786509 1.81174034 16.49744101 1.82603331 14.01695251 1.84178162 C13.30195318 1.84275972 12.58695384 1.84373783 11.85028785 1.84474558 C7.46317744 1.88046925 3.31729809 2.29443188 -1 3 C-0.67 2.01 -0.34 1.02 0 0 Z " fill="#E8C834" transform="translate(185,231)"/>
<path d="M0 0 C0.33 0 0.66 0 1 0 C2.26269513 8.10743964 2.26269513 8.10743964 2.82885742 11.74635315 C3.62468553 16.86121115 4.42186915 21.97585101 5.22167969 27.09008789 C7.98216928 44.76374419 7.98216928 44.76374419 9.25 53.56640625 C9.42370117 54.75572754 9.59740234 55.94504883 9.77636719 57.17041016 C10.08250578 59.28213524 10.38059573 61.39504978 10.66894531 63.50927734 C11.40682739 68.55734173 12.36721153 72.53416794 15 77 C15.33 77.66 15.66 78.32 16 79 C13.28967725 78.00621499 12.21159067 77.43630923 10.9296875 74.79296875 C9.63267226 70.89647337 9.14175194 66.99226361 8.5625 62.9375 C8.10983715 60.04434683 8.10983715 60.04434683 7.03173828 57.64599609 C5.27131169 53.13120588 4.68458599 48.38656498 3.875 43.625 C3.69324219 42.60921875 3.51148438 41.5934375 3.32421875 40.546875 C2.41593708 35.28840216 1.7745368 30.3359624 2 25 C1.34 25 0.68 25 0 25 C0 16.75 0 8.5 0 0 Z " fill="#9B8418" transform="translate(161,224)"/>
<path d="M0 0 C0.99 0.66 1.98 1.32 3 2 C2.67 2.66 2.34 3.32 2 4 C0.989375 3.566875 -0.02125 3.13375 -1.0625 2.6875 C-1.70445312 2.41679687 -2.34640625 2.14609375 -3.0078125 1.8671875 C-4.84181153 1.06885851 -6.64196694 0.1939435 -8.4375 -0.6875 C-14.0211457 -2.74463263 -18.49648458 -2.83011742 -24 -0.5 C-24.99 -0.005 -25.98 0.49 -27 1 C-26.34 1.33 -25.68 1.66 -25 2 C-26.65 2.66 -28.3 3.32 -30 4 C-30 4.66 -30 5.32 -30 6 C-30.66 6 -31.32 6 -32 6 C-32 6.66 -32 7.32 -32 8 C-32.99 8.66 -33.98 9.32 -35 10 C-37.51975352 16.2330745 -38.29444632 23.64308311 -36.359375 30.15625 C-35.646865 31.80480256 -34.82960593 33.40715661 -34 35 C-33.67 35.99 -33.34 36.98 -33 38 C-35.52742978 37.64424833 -36.67876203 37.41741106 -38.265625 35.35546875 C-41.51028219 28.20949755 -42.55527951 20.94927733 -40.1640625 13.33984375 C-38.70828566 9.9740439 -37.03615768 7.05423653 -35 4 C-34.34 4 -33.68 4 -33 4 C-33 3.34 -33 2.68 -33 2 C-22.86318063 -5.72329095 -10.9986901 -6.39838872 0 0 Z " fill="#B29823" transform="translate(223,345)"/>
<path d="M0 0 C0.33 0 0.66 0 1 0 C1 1.98 1 3.96 1 6 C1.99 6 2.98 6 4 6 C4.04898438 7.09699219 4.09796875 8.19398438 4.1484375 9.32421875 C4.22350591 10.77866925 4.29905197 12.23309516 4.375 13.6875 C4.4059375 14.40873047 4.436875 15.12996094 4.46875 15.87304688 C4.69561756 20.01337991 5.277835 23.17731557 7 27 C9.18333562 35.28858892 9.22392407 43.47844512 9 52 C9.66 52 10.32 52 11 52 C11.25523437 52.95712891 11.25523437 52.95712891 11.515625 53.93359375 C11.75796875 54.75988281 12.0003125 55.58617187 12.25 56.4375 C12.48203125 57.26121094 12.7140625 58.08492188 12.953125 58.93359375 C13.80770679 61.19995468 13.80770679 61.19995468 16.109375 61.78515625 C16.73328125 61.85605469 17.3571875 61.92695313 18 62 C18 62.99 18 63.98 18 65 C21.3 66.65 24.6 68.3 28 70 C24 71 24 71 22.0703125 70.25 C14.30045559 65.25732086 9.57986519 60.0213776 7 51 C5.99004766 46.1288743 5.20609603 41.22630581 4.4375 36.3125 C4.22931641 35.02666016 4.02113281 33.74082031 3.80664062 32.41601562 C3.19351341 28.61232049 2.59574482 24.80645135 2 21 C1.70657715 19.17601685 1.70657715 19.17601685 1.40722656 17.31518555 C1.22514648 16.16961182 1.04306641 15.02403809 0.85546875 13.84375 C0.69328857 12.83119141 0.5311084 11.81863281 0.36401367 10.77539062 C-0.11348798 7.13472075 -0.14373145 3.66515201 0 0 Z " fill="#BA9E1F" transform="translate(147,250)"/>
<path d="M0 0 C1.45132797 4.53900627 -0.05952981 7.86757172 -1.625 12.1875 C-2.19517341 13.82596717 -2.76283126 15.46531164 -3.328125 17.10546875 C-3.61365234 17.93095215 -3.89917969 18.75643555 -4.19335938 19.60693359 C-5.35199911 23.04427823 -6.37449329 26.5139199 -7.375 30 C-9.59595026 37.6610202 -11.87313554 45.30415759 -14.1875 52.9375 C-14.53280762 54.09443359 -14.87811523 55.25136719 -15.23388672 56.44335938 C-15.56275879 57.52294922 -15.89163086 58.60253906 -16.23046875 59.71484375 C-16.52332764 60.68542725 -16.81618652 61.65601074 -17.11791992 62.65600586 C-18 65 -18 65 -20 67 C-19.9127395 64.74928094 -19.80455885 62.49936612 -19.6875 60.25 C-19.62949219 58.99703125 -19.57148438 57.7440625 -19.51171875 56.453125 C-18.96671332 52.77537842 -18.22464156 51.81641814 -16 49 C-15.21685963 46.5307389 -14.53807428 44.13604307 -13.9375 41.625 C-13.03011482 37.96630636 -12.11494924 34.34360277 -10.91796875 30.765625 C-9.84485718 27.53259098 -9.4050868 24.37572333 -9 21 C-8.34 21 -7.68 21 -7 21 C-7 19.35 -7 17.7 -7 16 C-6.01 15.67 -5.02 15.34 -4 15 C-3.87882812 14.08476562 -3.75765625 13.16953125 -3.6328125 12.2265625 C-3.46523438 11.03804687 -3.29765625 9.84953125 -3.125 8.625 C-2.96257812 7.44164062 -2.80015625 6.25828125 -2.6328125 5.0390625 C-2 2 -2 2 0 0 Z " fill="#A99020" transform="translate(402,214)"/>
<path d="M0 0 C0.888013 -0.00029205 1.776026 -0.00058411 2.69094849 -0.00088501 C5.62910702 0.00050946 8.56701266 0.01607621 11.50512695 0.03173828 C13.54108034 0.03546799 15.57703551 0.03831516 17.61299133 0.04031372 C22.97405952 0.04795345 28.33501951 0.06760491 33.69604492 0.08972168 C39.16559383 0.11017275 44.63516021 0.11931386 50.10473633 0.12939453 C60.83850785 0.15085044 71.57219903 0.18499053 82.3059082 0.22705078 C82.3059082 0.55705078 82.3059082 0.88705078 82.3059082 1.22705078 C52.6059082 1.22705078 22.9059082 1.22705078 -7.6940918 1.22705078 C-7.6940918 2.21705078 -7.6940918 3.20705078 -7.6940918 4.22705078 C-8.6840918 4.72205078 -8.6840918 4.72205078 -9.6940918 5.22705078 C-9.3640918 8.52705078 -9.0340918 11.82705078 -8.6940918 15.22705078 C-9.3540918 15.22705078 -10.0140918 15.22705078 -10.6940918 15.22705078 C-13.18820092 10.53225715 -12.77147599 7.28246891 -11.6940918 2.22705078 C-7.7900403 -0.37565022 -4.5260838 -0.03873804 0 0 Z " fill="#E9CA34" transform="translate(188.694091796875,193.77294921875)"/>
<path d="M0 0 C0.99 0.495 0.99 0.495 2 1 C2.48657227 2.81005859 2.48657227 2.81005859 2.81640625 5.1484375 C2.94080078 5.98890625 3.06519531 6.829375 3.19335938 7.6953125 C3.31517578 8.57960937 3.43699219 9.46390625 3.5625 10.375 C3.81159768 12.11229667 4.06281342 13.8492913 4.31640625 15.5859375 C4.42412354 16.3598584 4.53184082 17.1337793 4.64282227 17.93115234 C4.97901486 20.1874101 4.97901486 20.1874101 6 23 C6.30540669 26.09224276 6.50832311 29.18511719 6.71875 32.28515625 C6.83496737 34.96382316 6.83496737 34.96382316 8 37 C8.08308638 38.37548156 8.10736016 39.75485796 8.09765625 41.1328125 C8.09443359 41.93847656 8.09121094 42.74414062 8.08789062 43.57421875 C8.07951172 44.41597656 8.07113281 45.25773437 8.0625 46.125 C8.05798828 46.97449219 8.05347656 47.82398438 8.04882812 48.69921875 C8.03702874 50.79950909 8.01909306 52.8997633 8 55 C7.67 55 7.34 55 7 55 C3.68046894 36.68567294 1.06662107 18.60966499 0 0 Z " fill="#AC9420" transform="translate(139,195)"/>
<path d="M0 0 C0.66 0 1.32 0 2 0 C2.81837442 1.41328129 3.62946219 2.83078346 4.4375 4.25 C5.11619141 5.43335938 5.11619141 5.43335938 5.80859375 6.640625 C9.25432896 13.46431047 8.71123654 20.57215716 6.375 27.6875 C4.42650748 32.67788373 2.07610551 35.57236582 -2 39 C-2.66 38.67 -3.32 38.34 -4 38 C-3.67 36.68 -3.34 35.36 -3 34 C-2.01 34 -1.02 34 0 34 C0 33.34 0 32.68 0 32 C0.66 32 1.32 32 2 32 C2 31.01 2 30.02 2 29 C2.66 29 3.32 29 4 29 C4.33 22.4 4.66 15.8 5 9 C3.68 8.34 2.36 7.68 1 7 C0.25 3.375 0.25 3.375 0 0 Z " fill="#AC9123" transform="translate(226,349)"/>
<path d="M0 0 C6.88659991 -0.126851 13.77289823 -0.21437266 20.66040039 -0.2746582 C23.00296284 -0.29979125 25.34544695 -0.33390308 27.68774414 -0.37719727 C31.05634899 -0.43789928 34.42391649 -0.46622251 37.79296875 -0.48828125 C39.36198189 -0.52699089 39.36198189 -0.52699089 40.96269226 -0.56648254 C48.21062076 -0.5692738 48.21062076 -0.5692738 52.1730957 2.28833008 C54.59848699 5.88833289 54.61901661 8.84710378 54 13 C53.45978347 15.40600641 52.7817107 17.65486791 52 20 C50.80389975 16.03446763 51.0483085 12.43749542 51.2578125 8.33984375 C51.17554045 5.98432639 51.17554045 5.98432639 49.8671875 4.25390625 C45.01436671 0.99500359 37.88671033 1.79015214 32.2265625 1.68359375 C30.8409462 1.6524221 30.8409462 1.6524221 29.42733765 1.62062073 C26.49329656 1.55553881 23.55917038 1.49643357 20.625 1.4375 C18.62889765 1.3942754 16.63280373 1.35065988 14.63671875 1.30664062 C9.75789844 1.1999001 4.87899301 1.09851752 0 1 C0 0.67 0 0.34 0 0 Z " fill="#7B6A0B" transform="translate(364,156)"/>
<path d="M0 0 C2.97 0 5.94 0 9 0 C9.33 0.99 9.66 1.98 10 3 C11.32 3 12.64 3 14 3 C14 6.96 14 10.92 14 15 C13.34 15 12.68 15 12 15 C11.67 16.32 11.34 17.64 11 19 C10.01 18.67 9.02 18.34 8 18 C6.824375 18 5.64875 18 4.4375 18 C1 18 1 18 -1 17 C-0.67 16.34 -0.34 15.68 0 15 C1.093125 15.165 2.18625 15.33 3.3125 15.5 C6.87525873 16.06718184 6.87525873 16.06718184 10 16 C10.2226746 14.56465159 10.42761906 13.12654475 10.625 11.6875 C10.74101562 10.88699219 10.85703125 10.08648437 10.9765625 9.26171875 C11.21533407 6.71276785 11.21533407 6.71276785 9 4 C7.09293424 3.59912669 7.09293424 3.59912669 5 3.75 C3.948125 3.77320313 3.948125 3.77320313 2.875 3.796875 C0.91063372 3.89956666 0.91063372 3.89956666 -1 5 C-0.67 3.35 -0.34 1.7 0 0 Z " fill="#AF941B" transform="translate(376,357)"/>
<path d="M0 0 C5.23306886 0.09340698 10.465668 0.19947109 15.69824219 0.31738281 C17.47909473 0.35571565 19.26002584 0.39056089 21.04101562 0.421875 C23.59794234 0.46743271 26.1543261 0.52544107 28.7109375 0.5859375 C29.50994476 0.59748871 30.30895203 0.60903992 31.13217163 0.62094116 C36.77225659 0.77225659 36.77225659 0.77225659 39 3 C34.72964262 3.19955787 30.45871882 3.38240176 26.1875 3.5625 C24.3940918 3.64661133 24.3940918 3.64661133 22.56445312 3.73242188 C15.27617108 4.03030806 8.2427287 3.88900254 1 3 C0.67 2.01 0.34 1.02 0 0 Z " fill="#CCB12C" transform="translate(85,122)"/>
<path d="M0 0 C1.43574034 2.87148069 0.53431124 4.85309104 0 8 C-0.06578002 10.45754141 -0.08569162 12.91668778 -0.0625 15.375 C-0.05347656 16.62023437 -0.04445313 17.86546875 -0.03515625 19.1484375 C-0.02355469 20.08945312 -0.01195312 21.03046875 0 22 C-0.66 22 -1.32 22 -2 22 C-1.319375 23.11375 -0.63875 24.2275 0.0625 25.375 C1.22265625 27.2734375 1.22265625 27.2734375 2 29 C1.67 29.66 1.34 30.32 1 31 C-3.94708086 24.13792009 -4.72486828 18.31755636 -4 10 C-2.06719368 2.06719368 -2.06719368 2.06719368 0 0 Z " fill="#978216" transform="translate(359,352)"/>
<path d="M0 0 C3.25 2.125 3.25 2.125 4.25 4.125 C-1.42691764 3.22185401 -1.42691764 3.22185401 -3.53515625 2.58984375 C-6.53346514 1.96056904 -9.37804204 2.07018328 -12.4375 2.125 C-14.5413335 2.16244309 -16.64635704 2.17194322 -18.75 2.125 C-19.08 1.795 -19.41 1.465 -19.75 1.125 C-21.42542976 1.41104898 -23.09385343 1.74281233 -24.75 2.125 C-23.75 0.125 -23.75 0.125 -21.0859375 -0.9765625 C-14.18976664 -2.83384505 -6.53883877 -3.16319276 0 0 Z " fill="#A48C1B" transform="translate(392.75,342.875)"/>
<path d="M0 0 C0.33 0 0.66 0 1 0 C0.39564651 5.51927642 -0.98200849 10.39486334 -2.8125 15.625 C-3.35408429 17.20791654 -3.89443934 18.79125417 -4.43359375 20.375 C-4.83167236 21.54095703 -4.83167236 21.54095703 -5.23779297 22.73046875 C-6.93552236 27.78559123 -8.46614085 32.8931513 -10 38 C-11.27468651 34.17594048 -10.56116598 32.04200481 -9.6875 28.125 C-9.42324219 26.91070312 -9.15898437 25.69640625 -8.88671875 24.4453125 C-8.12506584 21.48593863 -7.21735323 18.79619127 -6 16 C-5.34 16 -4.68 16 -4 16 C-3.8453125 14.5459375 -3.8453125 14.5459375 -3.6875 13.0625 C-3.05370121 8.51406161 -1.55244173 4.30582896 0 0 Z " fill="#897419" transform="translate(414,176)"/>
<path d="M0 0 C1.03774416 3.16820056 0.96319807 4.95426036 -0.14453125 8.08203125 C-0.54188477 9.23348633 -0.54188477 9.23348633 -0.94726562 10.40820312 C-1.37555664 11.59833008 -1.37555664 11.59833008 -1.8125 12.8125 C-2.36206552 14.38102464 -2.91026247 15.95002951 -3.45703125 17.51953125 C-3.72080566 18.27186035 -3.98458008 19.02418945 -4.25634766 19.79931641 C-5.28350838 22.83898377 -6.15308535 25.90566305 -7 29 C-9.1519437 25.77208445 -9.20086443 24.71599191 -9 21 C-8.34 21 -7.68 21 -7 21 C-7 19.35 -7 17.7 -7 16 C-6.01 15.67 -5.02 15.34 -4 15 C-3.87882812 14.08476562 -3.75765625 13.16953125 -3.6328125 12.2265625 C-3.38144531 10.44378906 -3.38144531 10.44378906 -3.125 8.625 C-2.96257812 7.44164062 -2.80015625 6.25828125 -2.6328125 5.0390625 C-2 2 -2 2 0 0 Z " fill="#B89B1D" transform="translate(402,214)"/>
<path d="M0 0 C0.99 0 1.98 0 3 0 C3.33 0.99 3.66 1.98 4 3 C3.01 4.485 3.01 4.485 2 6 C1.78685015 9.4103976 1.915106 11.74531799 3 15 C8.02254631 15.2954439 10.89542386 14.98514628 15 12 C13.63016497 15.16115776 13.0109362 15.9927092 10 18 C6.32471182 18.47938542 4.52057974 18.30198132 1.29296875 16.4296875 C-1 14 -1 14 -1.26953125 10.546875 C-1.11871094 9.29390625 -0.96789062 8.0409375 -0.8125 6.75 C-0.67457031 5.48671875 -0.53664062 4.2234375 -0.39453125 2.921875 C-0.26433594 1.95765625 -0.13414062 0.9934375 0 0 Z " fill="#917D16" transform="translate(200,358)"/>
<path d="M0 0 C1.485 0.99 1.485 0.99 3 2 C2.67 2.66 2.34 3.32 2 4 C0.4840625 3.3503125 0.4840625 3.3503125 -1.0625 2.6875 C-1.70445312 2.41679687 -2.34640625 2.14609375 -3.0078125 1.8671875 C-4.84181153 1.06885851 -6.64196694 0.1939435 -8.4375 -0.6875 C-14.72044724 -3.00227004 -18.94515056 -2.67435359 -24.875 0.0625 C-25.98488281 0.63677734 -25.98488281 0.63677734 -27.1171875 1.22265625 C-27.73851562 1.47917969 -28.35984375 1.73570312 -29 2 C-29.66 1.67 -30.32 1.34 -31 1 C-22.02189569 -6.5968575 -9.71465362 -5.65141208 0 0 Z " fill="#847218" transform="translate(223,345)"/>
<path d="M0 0 C0.33 0 0.66 0 1 0 C1.71929322 4.28553369 2.43109738 8.5722267 3.13623047 12.86010742 C3.37672869 14.31617081 3.61920815 15.77190848 3.86376953 17.22729492 C4.21658589 19.32907238 4.56206875 21.43194959 4.90625 23.53515625 C5.11572266 24.797229 5.32519531 26.05930176 5.54101562 27.35961914 C5.99366196 30.94973058 6.08144523 34.38586804 6 38 C3.02375741 32.04751481 2.25508642 27.00175311 1.4375 20.375 C1.29892578 19.30636719 1.16035156 18.23773438 1.01757812 17.13671875 C0.29819355 11.37455465 -0.1616723 5.8061444 0 0 Z " fill="#7B6514" transform="translate(155,186)"/>
<path d="M0 0 C0.99 0.33 1.98 0.66 3 1 C3.91039125 3.28697319 4.45841999 5.58315365 5.05859375 7.96875 C5.8072053 10.20825341 5.8072053 10.20825341 8.09765625 10.78125 C8.72542969 10.8534375 9.35320312 10.925625 10 11 C10 11.99 10 12.98 10 14 C13.3 15.65 16.6 17.3 20 19 C16 20 16 20 14.0703125 19.25 C7.80637335 15.22497886 2.06717988 10.44184757 0 3 C0 2.01 0 1.02 0 0 Z " fill="#8E7919" transform="translate(155,301)"/>
<path d="M0 0 C0.66 0 1.32 0 2 0 C2 0.66 2 1.32 2 2 C2.66 2 3.32 2 4 2 C4.81498562 3.6029053 5.62689927 5.20737278 6.4375 6.8125 C6.88996094 7.70582031 7.34242188 8.59914063 7.80859375 9.51953125 C9.56045514 13.16684922 10.15767674 15.99175399 10.1875 20 C10.20167969 20.86625 10.21585937 21.7325 10.23046875 22.625 C10 25 10 25 8 28 C8.06960938 27.26136719 8.13921875 26.52273438 8.2109375 25.76171875 C8.61473315 18.19535749 7.3303815 13.59713712 3.3125 7.1796875 C2 5 2 5 2 3 C1.34 3 0.68 3 0 3 C0 2.01 0 1.02 0 0 Z " fill="#846E1A" transform="translate(397,347)"/>
<path d="M0 0 C4.81775674 7.22663511 4.22786088 14.58180626 4 23 C3.67 23 3.34 23 3 23 C2.51171875 21.01432292 2.0234375 19.02864583 1.53515625 17.04296875 C1.08989295 15.34316798 0.55566015 13.66698046 0 12 C-0.068991 9.93854893 -0.08467727 7.87498599 -0.0625 5.8125 C-0.05347656 4.72582031 -0.04445312 3.63914063 -0.03515625 2.51953125 C-0.02355469 1.68808594 -0.01195312 0.85664063 0 0 Z " fill="#BBA125" transform="translate(151,169)"/>
<path d="M0 0 C0.33 0 0.66 0 1 0 C1 1.98 1 3.96 1 6 C1.99 6 2.98 6 4 6 C4 12.27 4 18.54 4 25 C0.18402373 17.36804746 -0.3315763 8.45519565 0 0 Z " fill="#997D1A" transform="translate(147,250)"/>
<path d="M0 0 C2.97 0 5.94 0 9 0 C9 0.66 9 1.32 9 2 C9.66 2 10.32 2 11 2 C12.35709504 9.73059495 13.31918373 17.14453364 13 25 C12.67 25 12.34 25 12 25 C11.01 18.07 10.02 11.14 9 4 C8.34 4 7.68 4 7 4 C7 3.34 7 2.68 7 2 C4.69 1.67 2.38 1.34 0 1 C0 0.67 0 0.34 0 0 Z " fill="#7B6912" transform="translate(118,125)"/>
<path d="M0 0 C0.66 0 1.32 0 2 0 C0.97907757 5.51298111 -1.96566451 9.24389454 -6 13 C-6.66 12.67 -7.32 12.34 -8 12 C-8.625 9.4375 -8.625 9.4375 -9 7 C-8.34 6.67 -7.68 6.34 -7 6 C-7 6.66 -7 7.32 -7 8 C-6.01 8 -5.02 8 -4 8 C-4 6.68 -4 5.36 -4 4 C-3.34 4 -2.68 4 -2 4 C-2 3.34 -2 2.68 -2 2 C-1.34 2 -0.68 2 0 2 C0 1.34 0 0.68 0 0 Z " fill="#B4951F" transform="translate(403,375)"/>
<path d="M0 0 C7.2 -0.48 7.2 -0.48 10.5 1.5 C12.94819795 5.58032991 12.53492744 9.5928265 11.5390625 14.07421875 C11.07536763 15.73075187 10.54397747 17.36806758 10 19 C8.80389975 15.03446763 9.0483085 11.43749542 9.2578125 7.33984375 C9.1934959 4.95112247 9.1934959 4.95112247 7.69140625 3.234375 C5.27499419 1.47089645 2.92741153 1.32526795 0 1 C0 0.67 0 0.34 0 0 Z " fill="#AB9527" transform="translate(406,157)"/>
<path d="M0 0 C1.21319104 3.63957313 0.73983613 5.79347028 0.125 9.5625 C-0.05804688 10.71878906 -0.24109375 11.87507812 -0.4296875 13.06640625 C-1 16 -1 16 -2 18 C-6.29 18 -10.58 18 -15 18 C-15 17.67 -15 17.34 -15 17 C-11.04 17 -7.08 17 -3 17 C-3.061875 15.865625 -3.12375 14.73125 -3.1875 13.5625 C-3.21380222 8.66152009 -1.76012394 4.526033 0 0 Z " fill="#AC9016" transform="translate(383,215)"/>
<path d="M0 0 C2.31 0.33 4.62 0.66 7 1 C7 1.66 7 2.32 7 3 C11.95 3 16.9 3 22 3 C16.75780762 5.62109619 12.36088986 5.87405693 6.671875 4.39453125 C1.23387978 2.46775956 1.23387978 2.46775956 0 0 Z " fill="#7F7018" transform="translate(367,388)"/>
<path d="M0 0 C4.75 1.875 4.75 1.875 7 3 C7 3.66 7 4.32 7 5 C7.66 5 8.32 5 9 5 C11.1875 7.3125 11.1875 7.3125 13 10 C12.67 10.99 12.34 11.98 12 13 C7.125 8.375 7.125 8.375 6 5 C2.99152582 3.77479736 2.99152582 3.77479736 0 3 C0 2.01 0 1.02 0 0 Z " fill="#8A751B" transform="translate(131,110)"/>
<path d="M0 0 C2.69423287 4.04134931 3.11848959 5.80989528 3.0625 10.625 C3.05347656 11.62789063 3.04445312 12.63078125 3.03515625 13.6640625 C3.02355469 14.43492187 3.01195312 15.20578125 3 16 C2.34 16 1.68 16 1 16 C-0.06723961 12.53777385 -0.10173486 9.35960734 -0.0625 5.75 C-0.04896484 4.13351562 -0.04896484 4.13351562 -0.03515625 2.484375 C-0.02355469 1.66453125 -0.01195312 0.8446875 0 0 Z " fill="#AC941E" transform="translate(151,272)"/>
<path d="M0 0 C0.66 0.33 1.32 0.66 2 1 C1.41037542 3.79547896 0.80415498 6.5854771 0.1875 9.375 C0.02185547 10.1690625 -0.14378906 10.963125 -0.31445312 11.78125 C-0.48525391 12.54179687 -0.65605469 13.30234375 -0.83203125 14.0859375 C-0.98389893 14.7876709 -1.1357666 15.4894043 -1.29223633 16.21240234 C-2 18 -2 18 -5 20 C-4.125 13.125 -4.125 13.125 -3 12 C-2.76924918 10.65252916 -2.58846937 9.29622435 -2.4375 7.9375 C-2.2209375 5.9884375 -2.2209375 5.9884375 -2 4 C-1.34 4 -0.68 4 0 4 C0 2.68 0 1.36 0 0 Z " fill="#F8CE15" transform="translate(405,196)"/>
<path d="M0 0 C0.309375 0.639375 0.61875 1.27875 0.9375 1.9375 C1.8345163 3.93610821 1.8345163 3.93610821 3 5 C3.04063832 6.66617115 3.042721 8.33388095 3 10 C2.34 10 1.68 10 1 10 C1.680625 11.11375 2.36125 12.2275 3.0625 13.375 C4.22265625 15.2734375 4.22265625 15.2734375 5 17 C4.67 17.66 4.34 18.32 4 19 C-0.66928844 13.89296577 -0.35199549 9.38157043 -0.140625 2.6328125 C-0.09421875 1.76398438 -0.0478125 0.89515625 0 0 Z " fill="#AA901B" transform="translate(356,364)"/>
<path d="M0 0 C-2.68833027 3.47901564 -5.80828675 4.10668406 -10 5 C-12.693646 5.14598431 -15.29874304 5.09478095 -18 5 C-18 4.67 -18 4.34 -18 4 C-17.01 3.9175 -16.02 3.835 -15 3.75 C-11.10755773 3.22784311 -8.1675865 1.69720017 -4.796875 -0.2578125 C-3 -1 -3 -1 0 0 Z " fill="#9D821C" transform="translate(222,388)"/>
<path d="M0 0 C-1.65 0.66 -3.3 1.32 -5 2 C-5 2.66 -5 3.32 -5 4 C-5.66 4 -6.32 4 -7 4 C-7 4.66 -7 5.32 -7 6 C-7.66 5.67 -8.32 5.34 -9 5 C-9.99 5.66 -10.98 6.32 -12 7 C-11.34 5.35 -10.68 3.7 -10 2 C-9.34 2 -8.68 2 -8 2 C-8 1.34 -8 0.68 -8 0 C-2.25 -1.125 -2.25 -1.125 0 0 Z " fill="#BA9916" transform="translate(198,347)"/>
<path d="M0 0 C0.33 0 0.66 0 1 0 C1.20496094 1.04800781 1.40992188 2.09601563 1.62109375 3.17578125 C1.89312686 4.55470769 2.16526791 5.93361283 2.4375 7.3125 C2.63956055 8.34793945 2.63956055 8.34793945 2.84570312 9.40429688 C3.42774332 12.34289007 4.05152228 15.15456685 5 18 C3 18 3 18 1.38671875 16.453125 C-0.50656061 13.10388714 -0.29359007 10.56924263 -0.1875 6.75 C-0.16042969 5.48671875 -0.13335937 4.2234375 -0.10546875 2.921875 C-0.07066406 1.95765625 -0.03585938 0.9934375 0 0 Z " fill="#E9CC2A" transform="translate(169,284)"/>
<path d="M0 0 C0.33 0 0.66 0 1 0 C1.33868777 2.20751848 1.67071689 4.41605911 2 6.625 C2.185625 7.85476562 2.37125 9.08453125 2.5625 10.3515625 C2.95402516 13.6166027 3.08080924 16.71712451 3 20 C0.32266002 17.32968716 -0.00280229 15.96278559 -0.29296875 12.109375 C-0.27314945 10.65595991 -0.23754845 9.20268833 -0.1875 7.75 C-0.17396484 7.00492188 -0.16042969 6.25984375 -0.14648438 5.4921875 C-0.11127204 3.66114584 -0.05746851 1.83047831 0 0 Z " fill="#786615" transform="translate(150,152)"/>
<path d="M0 0 C1.31471568 0.28151087 2.62675767 0.57553339 3.9375 0.875 C4.66839844 1.03742188 5.39929688 1.19984375 6.15234375 1.3671875 C8 2 8 2 9 4 C10.64363134 4.72159424 12.31050386 5.39351421 14 6 C11.61519919 6.83414558 10.36680914 7.11903995 7.9296875 6.328125 C7.25164062 5.97234375 6.57359375 5.6165625 5.875 5.25 C5.19179687 4.90453125 4.50859375 4.5590625 3.8046875 4.203125 C2 3 2 3 0 0 Z " fill="#A89521" transform="translate(190,385)"/>
<path d="M0 0 C1.43739513 -0.02712066 2.87493863 -0.04645067 4.3125 -0.0625 C5.51326172 -0.07990234 5.51326172 -0.07990234 6.73828125 -0.09765625 C9 0 9 0 12 1 C12.95024979 4.69541586 12.95024979 7.30458414 12 11 C11.67 11 11.34 11 11 11 C10.86722656 10.43410156 10.73445312 9.86820312 10.59765625 9.28515625 C10.42105469 8.55167969 10.24445313 7.81820313 10.0625 7.0625 C9.88847656 6.33160156 9.71445313 5.60070312 9.53515625 4.84765625 C9.16112431 3.00030102 9.16112431 3.00030102 8 2 C6.65252916 1.76924918 5.29622435 1.58846937 3.9375 1.4375 C2.638125 1.293125 1.33875 1.14875 0 1 C0 0.67 0 0.34 0 0 Z " fill="#8B7216" transform="translate(204,359)"/>
<path d="M0 0 C1.49828872 3.88235819 0.43110582 6.43449288 -0.9375 10.25 C-1.31777344 11.32765625 -1.69804687 12.4053125 -2.08984375 13.515625 C-2.39019531 14.33546875 -2.69054687 15.1553125 -3 16 C-4.13891534 12.58325399 -3.83543755 10.93822735 -3.1875 7.4375 C-3.01605469 6.46683594 -2.84460938 5.49617187 -2.66796875 4.49609375 C-2 2 -2 2 0 0 Z " fill="#7D6C16" transform="translate(402,214)"/>
<path d="M0 0 C0.66 0.33 1.32 0.66 2 1 C1.979375 1.86625 1.95875 2.7325 1.9375 3.625 C1.99738956 6.85903648 2.39580933 9.82799897 3 13 C2.34 13 1.68 13 1 13 C-1.48887372 8.31506124 -0.85687773 5.0555786 0 0 Z " fill="#887520" transform="translate(177,196)"/>
<path d="M0 0 C0.268125 0.5775 0.53625 1.155 0.8125 1.75 C1.95053246 4.05747896 1.95053246 4.05747896 3.625 6.125 C5 8 5 8 5 10 C3.125 9.6875 3.125 9.6875 1 9 C-1 6 -1 6 -0.625 2.8125 C-0.41875 1.884375 -0.2125 0.95625 0 0 Z " fill="#AF9A28" transform="translate(185,373)"/>
<path d="M0 0 C0.33 0 0.66 0 1 0 C1.35233161 5.37305699 1.35233161 5.37305699 1 8 C-1 10 -1 10 -3 11 C-2.53199289 6.94393835 -2.12046792 3.53411321 0 0 Z " fill="#E3C429" transform="translate(386,211)"/>
<path d="M0 0 C1.60725635 3.21451269 1.05748185 6.43612536 1 10 C-0.32 9.34 -1.64 8.68 -3 8 C-3 6.35 -3 4.7 -3 3 C-2.34 3 -1.68 3 -1 3 C-0.67 2.01 -0.34 1.02 0 0 Z " fill="#987E1C" transform="translate(374,362)"/>
<path d="M0 0 C0.33 0 0.66 0 1 0 C0.67 2.31 0.34 4.62 0 7 C-0.66 7 -1.32 7 -2 7 C-2.66 8.32 -3.32 9.64 -4 11 C-3.71758359 9.53984709 -3.42373386 8.08190207 -3.125 6.625 C-2.96257812 5.81289062 -2.80015625 5.00078125 -2.6328125 4.1640625 C-2 2 -2 2 0 0 Z " fill="#A0881C" transform="translate(374,249)"/>
<path d="M0 0 C0.66 0 1.32 0 2 0 C4.29013653 3.4352048 4.17842973 4.985331 4 9 C3.01 8.34 2.02 7.68 1 7 C0.3125 3.375 0.3125 3.375 0 0 Z " fill="#BF9D25" transform="translate(226,349)"/>
<path d="M0 0 C0 0.99 0 1.98 0 3 C-3.3 2.34 -6.6 1.68 -10 1 C-6.1496895 -1.56687367 -4.41430237 -0.83288724 0 0 Z " fill="#C19F24" transform="translate(416,306)"/>
<path d="M0 0 C0.66 0.33 1.32 0.66 2 1 C-1.44615385 5.8 -1.44615385 5.8 -4.25 6.8125 C-5.11625 6.9053125 -5.11625 6.9053125 -6 7 C-4.60667426 3.63279613 -3.0210714 2.0140476 0 0 Z " fill="#7F6D1A" transform="translate(366,345)"/>
<path d="M0 0 C1.18414294 3.55242882 0.69535532 4.69830562 -0.4375 8.1875 C-0.72496094 9.08855469 -1.01242187 9.98960937 -1.30859375 10.91796875 C-1.53675781 11.60503906 -1.76492188 12.29210937 -2 13 C-2.33 13 -2.66 13 -3 13 C-3.27429625 7.60550707 -3.36055646 4.48074195 0 0 Z " fill="#E9CB2E" transform="translate(412,179)"/>
<path d="M0 0 C2.31 0.33 4.62 0.66 7 1 C7 1.66 7 2.32 7 3 C7.66 3.33 8.32 3.66 9 4 C3.46153846 3.38461538 3.46153846 3.38461538 1.125 1.4375 C0.75375 0.963125 0.3825 0.48875 0 0 Z " fill="#9C8622" transform="translate(367,388)"/>
<path d="M0 0 C0.66 0 1.32 0 2 0 C2.185625 0.9590625 2.185625 0.9590625 2.375 1.9375 C2.684375 2.9584375 2.684375 2.9584375 3 4 C3.66 4.33 4.32 4.66 5 5 C5 5.66 5 6.32 5 7 C1.83884224 5.63016497 1.0072908 5.0109362 -1 2 C-0.67 1.34 -0.34 0.68 0 0 Z " fill="#BDA11F" transform="translate(362,381)"/>
<path d="M0 0 C1.12377697 3.30435084 0.89554742 5.0506862 -0.4375 8.25 C-0.72496094 8.95640625 -1.01242187 9.6628125 -1.30859375 10.390625 C-1.53675781 10.92171875 -1.76492188 11.4528125 -2 12 C-3.231394 8.30581799 -2.64432764 5.7943739 -2 2 C-1.34 2 -0.68 2 0 2 C0 1.34 0 0.68 0 0 Z " fill="#7C5F16" transform="translate(406,202)"/>
<path d="M0 0 C2 3 2 3 2 6 C1.34 6 0.68 6 0 6 C-0.33 6.99 -0.66 7.98 -1 9 C-2.0326802 6.21176345 -2.04509293 5.1322726 -1.0625 2.25 C-0.711875 1.5075 -0.36125 0.765 0 0 Z " fill="#E3C429" transform="translate(397,175)"/>
<path d="M0 0 C0.66 0 1.32 0 2 0 C1.34 3.3 0.68 6.6 0 10 C-0.33 10 -0.66 10 -1 10 C-1.02689216 8.52093108 -1.04634621 7.04172517 -1.0625 5.5625 C-1.07410156 4.73878906 -1.08570313 3.91507813 -1.09765625 3.06640625 C-1 1 -1 1 0 0 Z " fill="#EACB2A" transform="translate(414,169)"/>
<path d="M0 0 C3.77545388 1.09068668 6.47043472 1.9083091 9 5 C3.48387097 4.38709677 3.48387097 4.38709677 1.125 2.5 C0 1 0 1 0 0 Z " fill="#A89228" transform="translate(166,316)"/>
<path d="M0 0 C0.33 0 0.66 0 1 0 C0.25 7.75 0.25 7.75 -2 10 C-2.25 3.375 -2.25 3.375 0 0 Z " fill="#EEC929" transform="translate(399,219)"/>
<path d="M0 0 C0.33 0 0.66 0 1 0 C1.125 6.625 1.125 6.625 0 10 C-0.66 10 -1.32 10 -2 10 C-1.54177532 6.53058454 -1.10868317 3.32604951 0 0 Z " fill="#E4C62E" transform="translate(394,184)"/>
<path d="M0 0 C0.33 0.66 0.66 1.32 1 2 C1.99 2 2.98 2 4 2 C3.67 3.32 3.34 4.64 3 6 C2.01 6 1.02 6 0 6 C-0.38218767 4.34385343 -0.71395102 2.67542976 -1 1 C-0.67 0.67 -0.34 0.34 0 0 Z " fill="#C5A51C" transform="translate(395,381)"/>
<path d="M0 0 C2.64 0 5.28 0 8 0 C8 1.32 8 2.64 8 4 C5.64828869 3.40138258 3.3140622 2.73075648 1 2 C0.67 1.34 0.34 0.68 0 0 Z " fill="#F7D014" transform="translate(164,314)"/>
<path d="M0 0 C0.66 0 1.32 0 2 0 C1.6875 2.875 1.6875 2.875 1 6 C0.01 6.66 -0.98 7.32 -2 8 C-1.125 1.125 -1.125 1.125 0 0 Z " fill="#EDCC26" transform="translate(402,208)"/>
</svg>
