<?xml version="1.0" encoding="UTF-8"?>
<svg version="1.1" xmlns="http://www.w3.org/2000/svg" width="500" height="201">
<path d="M0 0 C0.74362793 0.01047363 1.48725586 0.02094727 2.25341797 0.03173828 C3.46191406 0.04140625 3.46191406 0.04140625 4.69482422 0.05126953 C5.95746094 0.07640625 5.95746094 0.07640625 7.24560547 0.10205078 C8.51984375 0.11558594 8.51984375 0.11558594 9.81982422 0.12939453 C11.9202043 0.15299431 14.02043991 0.18886595 16.12060547 0.22705078 C17.44773157 4.20842908 17.1897646 8.07750305 17.12060547 12.22705078 C18.33876198 12.22371986 18.33876198 12.22371986 19.58152771 12.22032166 C27.21889495 12.20032007 34.85624957 12.18507733 42.49363613 12.17523861 C46.42049205 12.17001047 50.34732641 12.16291409 54.27416992 12.15161133 C58.06074804 12.14077998 61.84730537 12.13477342 65.63389778 12.13217354 C67.08164866 12.13031974 68.52939835 12.12669997 69.97714043 12.12132072 C71.99817682 12.11410711 74.01923394 12.1136427 76.0402832 12.11352539 C77.76902931 12.11019447 77.76902931 12.11019447 79.53269958 12.10679626 C82.12060547 12.22705078 82.12060547 12.22705078 83.12060547 13.22705078 C83.37672733 18.77887997 82.81680368 23.4746378 81.47607422 28.90283203 C81.22039421 29.94059029 81.22039421 29.94059029 80.95954895 30.99931335 C80.60016666 32.44658872 80.23607457 33.89270219 79.86743164 35.33764648 C79.30596275 37.54798604 78.76620818 39.76289319 78.22802734 41.97900391 C77.87449664 43.39143604 77.51972273 44.80355771 77.16357422 46.21533203 C76.68440552 48.1263269 76.68440552 48.1263269 76.19555664 50.07592773 C75.12370812 53.21795563 74.72476981 54.31649209 72.12060547 56.22705078 C69.41954041 56.60127258 69.41954041 56.60127258 66.12036133 56.59936523 C64.88575668 56.60559402 63.65115204 56.61182281 62.37913513 56.61824036 C61.03123572 56.6095532 59.68334024 56.60023532 58.33544922 56.59033203 C56.95447287 56.5898134 55.57349577 56.59033123 54.19252014 56.59184265 C51.29986536 56.59175297 48.4074895 56.58133031 45.51489258 56.56323242 C41.80341634 56.54052385 38.0923469 56.54000526 34.38082027 56.54675007 C31.53011954 56.55008782 28.67951191 56.54346405 25.82882881 56.53362083 C24.46006317 56.52976676 23.09128717 56.52862148 21.72251701 56.53020668 C19.81213945 56.53057663 17.90177545 56.51649575 15.99145508 56.50170898 C14.90352158 56.49710159 13.81558807 56.4924942 12.69468689 56.48774719 C10.12060547 56.22705078 10.12060547 56.22705078 8.12060547 54.22705078 C7.84213257 52.31613159 7.84213257 52.31613159 7.80175781 49.9609375 C7.78188812 49.08017548 7.76201843 48.19941345 7.74154663 47.29196167 C7.72999542 46.33983795 7.71844421 45.38771423 7.70654297 44.40673828 C7.68717682 43.4329422 7.66781067 42.45914612 7.64785767 41.45584106 C7.58795989 38.33800075 7.54163576 35.22012372 7.49560547 32.10205078 C7.45743507 29.99135738 7.41838391 27.8806797 7.37841797 25.77001953 C7.2822502 20.58916934 7.19723283 15.40822481 7.12060547 10.22705078 C5.11865234 10.27587891 3.11669922 10.32470703 1.11474609 10.37353516 C-1.58899115 10.17492566 -2.99138435 9.11506097 -4.87939453 7.22705078 C-3.810977 0.46040642 -3.810977 0.46040642 0 0 Z " fill="#FE9E02" transform="translate(117.87939453125,52.77294921875)"/>
<path d="M0 0 C3.3068006 1.60905623 5.20514746 3.91611017 7.375 6.875 C8.28379643 9.96490786 8.18089321 12.80421993 8 16 C7 17 7 17 4.4375 17.0625 C3.633125 17.041875 2.82875 17.02125 2 17 C1.34 14.03 0.68 11.06 0 8 C-2.1346875 7.6596875 -2.1346875 7.6596875 -4.3125 7.3125 C-5.51326172 7.12107422 -5.51326172 7.12107422 -6.73828125 6.92578125 C-9.06924627 6.77944474 -9.06924627 6.77944474 -10.73046875 8.35546875 C-13.71720806 12.2244449 -13.14697143 16.19508559 -13.125 20.875 C-13.12886719 21.69097656 -13.13273437 22.50695312 -13.13671875 23.34765625 C-13.13542969 24.13785156 -13.13414062 24.92804688 -13.1328125 25.7421875 C-13.13168457 26.4626123 -13.13055664 27.18303711 -13.12939453 27.92529297 C-12.99634791 30.05855744 -12.58204873 31.94751238 -12 34 C-10.3973218 34.10824843 -8.79254252 34.18570645 -7.1875 34.25 C-6.29417969 34.29640625 -5.40085937 34.3428125 -4.48046875 34.390625 C-1.87241662 34.23552643 -1.87241662 34.23552643 -0.23828125 32.171875 C1.12927905 29.93743929 1.12927905 29.93743929 2 27 C-2.29 27 -6.58 27 -11 27 C-10.67 24.69 -10.34 22.38 -10 20 C-7.20775927 19.91928212 -4.41783434 19.85964592 -1.625 19.8125 C-0.8309375 19.78736328 -0.036875 19.76222656 0.78125 19.73632812 C2.85586148 19.70995595 4.93100865 19.84513538 7 20 C9.58837761 23.88256641 9.25793118 27.13223217 9.1875 31.625 C9.18685547 32.41390625 9.18621094 33.2028125 9.18554688 34.015625 C9.1403612 39.8596388 9.1403612 39.8596388 8 41 C6.00047242 41.04346799 3.99960012 41.039992 2 41 C-0.9254644 40.7763932 -0.9254644 40.7763932 -3 42 C-8.34012755 42.3501723 -11.67913597 42.48069602 -16 39 C-21.2876249 33.41861816 -21.19817311 28.03624468 -21.25 20.625 C-21.270625 19.89539063 -21.29125 19.16578125 -21.3125 18.4140625 C-21.35970718 11.80505674 -19.86451649 7.24698141 -15.5625 2.0625 C-11.04254651 -1.34728948 -5.34080239 -0.92183713 0 0 Z " fill="#E49C25" transform="translate(397,65)"/>
<path d="M0 0 C0.75603516 -0.020625 1.51207031 -0.04125 2.29101562 -0.0625 C8.06566587 -0.10256696 11.98484293 1.04127216 16.6328125 4.671875 C18.9455997 7.76580225 18.95605743 11.49254036 18.8125 15.25 C18.12890625 17.2890625 18.12890625 17.2890625 17.25 19.125 C16.775625 20.15625 16.30125 21.1875 15.8125 22.25 C16.4725 23.24 17.1325 24.23 17.8125 25.25 C17.98081093 27.83457128 18.04606334 30.29545273 18 32.875 C17.99935547 33.56851563 17.99871094 34.26203125 17.99804688 34.9765625 C17.95293257 40.10956743 17.95293257 40.10956743 16.8125 41.25 C14.81291636 41.29080783 12.81204746 41.29254356 10.8125 41.25 C10.75191406 40.25097656 10.69132812 39.25195312 10.62890625 38.22265625 C10.54511719 36.93230469 10.46132813 35.64195313 10.375 34.3125 C10.29378906 33.02472656 10.21257812 31.73695312 10.12890625 30.41015625 C10.16330812 27.38976043 10.16330812 27.38976043 8.8125 26.25 C6.96358054 26.01636119 5.10761969 25.83696365 3.25 25.6875 C2.23808594 25.60371094 1.22617187 25.51992187 0.18359375 25.43359375 C-0.99009766 25.34271484 -0.99009766 25.34271484 -2.1875 25.25 C-2.17589844 26.32121094 -2.16429687 27.39242187 -2.15234375 28.49609375 C-2.14296701 29.89322743 -2.13386669 31.29036299 -2.125 32.6875 C-2.11662109 33.39455078 -2.10824219 34.10160156 -2.09960938 34.83007812 C-2.09096412 36.63693559 -2.13529989 38.44387603 -2.1875 40.25 C-3.1875 41.25 -3.1875 41.25 -6.25 41.3125 C-7.219375 41.291875 -8.18875 41.27125 -9.1875 41.25 C-9.21214705 35.57169922 -9.23033462 29.89342931 -9.24243164 24.21508789 C-9.24747256 22.28181415 -9.25430519 20.34854424 -9.26293945 18.4152832 C-9.27501565 15.64273128 -9.28073057 12.87022959 -9.28515625 10.09765625 C-9.29031754 9.22786636 -9.29547882 8.35807648 -9.30079651 7.46192932 C-9.30099185 5.39094186 -9.24958168 3.32005676 -9.1875 1.25 C-7.10837421 -0.82912579 -2.85404059 0.01897949 0 0 Z M-2.1875 7.25 C-2.1875 11.21 -2.1875 15.17 -2.1875 19.25 C0.1946875 19.2809375 0.1946875 19.2809375 2.625 19.3125 C3.96498047 19.32990234 3.96498047 19.32990234 5.33203125 19.34765625 C7.94663791 19.36009967 7.94663791 19.36009967 10.8125 18.25 C12.21185013 15.45129973 12.06515405 13.34501208 11.8125 10.25 C10.7142688 8.45812765 10.7142688 8.45812765 8.8125 7.25 C6.07006437 6.88729516 6.07006437 6.88729516 3.125 7.0625 C1.371875 7.124375 -0.38125 7.18625 -2.1875 7.25 Z " fill="#DF9F2D" transform="translate(285.1875,64.75)"/>
<path d="M0 0 C2.1640625 -0.29296875 2.1640625 -0.29296875 4.625 -0.1875 C5.44226563 -0.16042969 6.25953125 -0.13335937 7.1015625 -0.10546875 C8.04128906 -0.05326172 8.04128906 -0.05326172 9 0 C11.89290157 5.20033496 13.43674613 10.52621109 15 16.25 C15.49932831 18.04706177 15.99932657 19.84393753 16.5 21.640625 C16.86544922 22.96610352 16.86544922 22.96610352 17.23828125 24.31835938 C18.23714576 27.83487469 19.33407809 31.3185643 20.44921875 34.79980469 C21 37 21 37 21 41 C18.69 41 16.38 41 14 41 C13.34 38.03 12.68 35.06 12 32 C6.72 32 1.44 32 -4 32 C-4.144375 33.299375 -4.28875 34.59875 -4.4375 35.9375 C-4.875 39.875 -4.875 39.875 -6 41 C-8.33297433 41.04092937 -10.66705225 41.04241723 -13 41 C-10.94019965 32.38174832 -8.54956788 23.90370144 -5.9375 15.4375 C-5.58623047 14.27669922 -5.23496094 13.11589844 -4.87304688 11.91992188 C-4.53208984 10.81068359 -4.19113281 9.70144531 -3.83984375 8.55859375 C-3.38146118 7.06283813 -3.38146118 7.06283813 -2.91381836 5.53686523 C-2 3 -2 3 0 0 Z M4 7 C3.16320723 9.62394306 2.33043058 12.24904384 1.5 14.875 C1.26152344 15.62136719 1.02304688 16.36773437 0.77734375 17.13671875 C-0.52770415 20.99242067 -0.52770415 20.99242067 -1 25 C2.63 25 6.26 25 10 25 C8.35 19.06 6.7 13.12 5 7 C4.67 7 4.34 7 4 7 Z " fill="#E09D23" transform="translate(251,65)"/>
<path d="M0 0 C5.08295539 2.35994357 7.00141455 4.84125808 9 10 C9.45294683 13.67406464 9.46447582 17.30185989 9.4375 21 C9.4674707 22.45792969 9.4674707 22.45792969 9.49804688 23.9453125 C9.49404875 29.81455863 9.00426758 33.39655369 5 38 C0.84484631 41.67199629 -2.41605832 42.65056281 -7.8203125 42.38671875 C-12.44592563 41.56604545 -15.16783103 39.17651474 -17.8125 35.4375 C-20.12419883 30.69243398 -20.21669434 26.42902988 -20.25 21.25 C-20.270625 20.46367188 -20.29125 19.67734375 -20.3125 18.8671875 C-20.35797249 12.02357819 -19.03686764 7.39331948 -14.5 2.0625 C-10.19639463 -1.18672205 -5.11350356 -0.81420369 0 0 Z M-13 11 C-13.68034095 14.18757795 -13.6093699 17.25370237 -13.5 20.5 C-13.50257813 21.34175781 -13.50515625 22.18351562 -13.5078125 23.05078125 C-13.434295 27.71914253 -13.26738672 31.37524286 -10 35 C-6.95058479 35.88941277 -4.09850582 35.63010659 -1 35 C2.43407646 31.99518309 2.9069336 28.38525754 3.203125 23.9765625 C3.47367573 15.5188119 3.47367573 15.5188119 0 8 C-5.77425253 4.15049831 -8.89682463 5.68483058 -13 11 Z " fill="#EC9E21" transform="translate(430,65)"/>
<path d="M0 0 C3.58179938 1.4592516 5.38366546 3.73861283 7.08984375 7.23046875 C7.96462247 9.5319252 8.70676824 11.55334753 9 14 C8.01 15.485 8.01 15.485 7 17 C4.375 17.1875 4.375 17.1875 2 17 C1.34 14.03 0.68 11.06 0 8 C-2.1346875 7.690625 -2.1346875 7.690625 -4.3125 7.375 C-5.11300781 7.25898437 -5.91351563 7.14296875 -6.73828125 7.0234375 C-9.28723215 6.78466593 -9.28723215 6.78466593 -12 9 C-13.56059329 12.74004253 -13.14682176 16.94775437 -13.125 20.9375 C-13.12886719 21.64068359 -13.13273438 22.34386719 -13.13671875 23.06835938 C-13.12965265 26.83812512 -12.903467 30.33593938 -12 34 C-8.62145045 34.2852434 -5.36897242 34.440851 -2 34 C0.15254366 31.85701707 0.15254366 31.85701707 1 29 C1.391875 28.236875 1.78375 27.47375 2.1875 26.6875 C2.455625 26.130625 2.72375 25.57375 3 25 C4.65 25 6.3 25 8 25 C9.32709834 28.01613258 8.92457017 29.23048003 7.875 32.4375 C6.20606551 35.99738321 4.00747406 38.44364705 1 41 C-3.07094774 42.35698258 -6.74353744 42.52387231 -11 42 C-15.95749315 39.52125342 -18.79307342 36.61233971 -20.55859375 31.328125 C-22.15395763 22.91363942 -22.2574055 12.52141637 -18 5 C-13.09525358 -1.03661098 -7.47467586 -1.24065265 0 0 Z " fill="#E79D27" transform="translate(228,65)"/>
<path d="M0 0 C1.12341797 -0.01224609 2.24683594 -0.02449219 3.40429688 -0.03710938 C5.01208008 -0.04000977 5.01208008 -0.04000977 6.65234375 -0.04296875 C8.13528931 -0.04913208 8.13528931 -0.04913208 9.64819336 -0.05541992 C12.0625 0.1875 12.0625 0.1875 14.0625 2.1875 C13.6875 4.8125 13.6875 4.8125 13.0625 7.1875 C10.0925 7.1875 7.1225 7.1875 4.0625 7.1875 C4.0625 16.4275 4.0625 25.6675 4.0625 35.1875 C7.0325 35.1875 10.0025 35.1875 13.0625 35.1875 C13.44468767 36.84364657 13.77645102 38.51207024 14.0625 40.1875 C13.0625 41.1875 13.0625 41.1875 10.56225586 41.30102539 C9.47823486 41.29578857 8.39421387 41.29055176 7.27734375 41.28515625 C5.52260742 41.28032227 5.52260742 41.28032227 3.73242188 41.27539062 C1.88487305 41.26282227 1.88487305 41.26282227 0 41.25 C-1.85334961 41.24323242 -1.85334961 41.24323242 -3.74414062 41.23632812 C-6.80864117 41.22449608 -9.87304721 41.20801173 -12.9375 41.1875 C-12.9375 39.2075 -12.9375 37.2275 -12.9375 35.1875 C-9.9375 34.1875 -9.9375 34.1875 -2.9375 35.1875 C-2.9375 25.9475 -2.9375 16.7075 -2.9375 7.1875 C-6.2375 7.1875 -9.5375 7.1875 -12.9375 7.1875 C-12.98004356 5.18795254 -12.97830783 3.18708364 -12.9375 1.1875 C-10.40440278 -1.34559722 -3.40755092 0.00194829 0 0 Z " fill="#EC9F20" transform="translate(356.9375,64.8125)"/>
<path d="M0 0 C3.96930989 -0.02465881 7.93859034 -0.04284023 11.90795898 -0.05493164 C13.25920386 -0.05997057 14.61044326 -0.06680177 15.96166992 -0.07543945 C17.90020434 -0.08752419 19.838778 -0.09269828 21.77734375 -0.09765625 C23.52905884 -0.10551147 23.52905884 -0.10551147 25.31616211 -0.11352539 C28 0 28 0 29 1 C29.125 3.5 29.125 3.5 29 6 C28 7 28 7 25.71484375 7.09765625 C24.34005859 7.08025391 24.34005859 7.08025391 22.9375 7.0625 C22.01839844 7.05347656 21.09929687 7.04445313 20.15234375 7.03515625 C19.44207031 7.02355469 18.73179687 7.01195313 18 7 C18.00785522 8.49164673 18.00785522 8.49164673 18.01586914 10.01342773 C18.03392041 13.69033921 18.04543246 17.36724675 18.05493164 21.04418945 C18.05997157 22.63794614 18.0668035 24.23169819 18.07543945 25.82543945 C18.08751999 28.11150253 18.09323155 30.39750467 18.09765625 32.68359375 C18.10281754 33.40026718 18.10797882 34.11694061 18.11329651 34.85533142 C18.11349263 36.57063672 18.06192007 38.28581266 18 40 C17.67 40.33 17.34 40.66 17 41 C15.02 41 13.04 41 11 41 C11 29.78 11 18.56 11 7 C7.37 7 3.74 7 0 7 C-1 2 -1 2 0 0 Z " fill="#E49E2F" transform="translate(309,65)"/>
<path d="M0 0 C0.74362793 0.01047363 1.48725586 0.02094727 2.25341797 0.03173828 C3.46191406 0.04140625 3.46191406 0.04140625 4.69482422 0.05126953 C5.95746094 0.07640625 5.95746094 0.07640625 7.24560547 0.10205078 C8.51984375 0.11558594 8.51984375 0.11558594 9.81982422 0.12939453 C11.9202043 0.15299431 14.02043991 0.18886595 16.12060547 0.22705078 C17.44773157 4.20842908 17.1897646 8.07750305 17.12060547 12.22705078 C18.33876198 12.22371986 18.33876198 12.22371986 19.58152771 12.22032166 C27.21889495 12.20032007 34.85624957 12.18507733 42.49363613 12.17523861 C46.42049205 12.17001047 50.34732641 12.16291409 54.27416992 12.15161133 C58.06074804 12.14077998 61.84730537 12.13477342 65.63389778 12.13217354 C67.08164866 12.13031974 68.52939835 12.12669997 69.97714043 12.12132072 C71.99817682 12.11410711 74.01923394 12.1136427 76.0402832 12.11352539 C77.76902931 12.11019447 77.76902931 12.11019447 79.53269958 12.10679626 C82.12060547 12.22705078 82.12060547 12.22705078 83.12060547 13.22705078 C83.37672733 18.77887997 82.81680368 23.4746378 81.47607422 28.90283203 C81.22039421 29.94059029 81.22039421 29.94059029 80.95954895 30.99931335 C80.60016666 32.44658872 80.23607457 33.89270219 79.86743164 35.33764648 C79.30596275 37.54798604 78.76620818 39.76289319 78.22802734 41.97900391 C77.87449664 43.39143604 77.51972273 44.80355771 77.16357422 46.21533203 C76.68440552 48.1263269 76.68440552 48.1263269 76.19555664 50.07592773 C75.12370812 53.21795563 74.72476981 54.31649209 72.12060547 56.22705078 C69.41954041 56.60127258 69.41954041 56.60127258 66.12036133 56.59936523 C64.88575668 56.60559402 63.65115204 56.61182281 62.37913513 56.61824036 C61.03123572 56.6095532 59.68334024 56.60023532 58.33544922 56.59033203 C56.95447287 56.5898134 55.57349577 56.59033123 54.19252014 56.59184265 C51.29986536 56.59175297 48.4074895 56.58133031 45.51489258 56.56323242 C41.80341634 56.54052385 38.0923469 56.54000526 34.38082027 56.54675007 C31.53011954 56.55008782 28.67951191 56.54346405 25.82882881 56.53362083 C24.46006317 56.52976676 23.09128717 56.52862148 21.72251701 56.53020668 C19.81213945 56.53057663 17.90177545 56.51649575 15.99145508 56.50170898 C14.90352158 56.49710159 13.81558807 56.4924942 12.69468689 56.48774719 C10.12060547 56.22705078 10.12060547 56.22705078 8.12060547 54.22705078 C7.84213257 52.31613159 7.84213257 52.31613159 7.80175781 49.9609375 C7.78188812 49.08017548 7.76201843 48.19941345 7.74154663 47.29196167 C7.72999542 46.33983795 7.71844421 45.38771423 7.70654297 44.40673828 C7.68717682 43.4329422 7.66781067 42.45914612 7.64785767 41.45584106 C7.58795989 38.33800075 7.54163576 35.22012372 7.49560547 32.10205078 C7.45743507 29.99135738 7.41838391 27.8806797 7.37841797 25.77001953 C7.2822502 20.58916934 7.19723283 15.40822481 7.12060547 10.22705078 C5.11865234 10.27587891 3.11669922 10.32470703 1.11474609 10.37353516 C-1.58899115 10.17492566 -2.99138435 9.11506097 -4.87939453 7.22705078 C-3.810977 0.46040642 -3.810977 0.46040642 0 0 Z M-0.87939453 1.22705078 C-1.53939453 3.20705078 -2.19939453 5.18705078 -2.87939453 7.22705078 C-1.21596616 8.89047915 0.90317636 8.58753175 3.18310547 8.78955078 C4.10220703 8.87333984 5.02130859 8.95712891 5.96826172 9.04345703 C7.03367187 9.13433594 7.03367187 9.13433594 8.12060547 9.22705078 C8.8944297 13.31476204 9.23023727 17.13994554 9.18310547 21.29736328 C9.17537109 22.44205078 9.16763672 23.58673828 9.15966797 24.76611328 C9.13388158 27.13330358 9.10784502 29.50049116 9.08154297 31.86767578 C9.03112557 39.37986858 9.35560892 46.7529662 10.12060547 54.22705078 C24.41825454 55.1633691 38.55326697 55.21709764 52.87060547 54.78955078 C54.85105548 54.73611728 56.8315244 54.6833799 58.81201172 54.63134766 C63.58179789 54.50455993 68.35123296 54.36851522 73.12060547 54.22705078 C74.80609065 48.05998655 74.80609065 48.05998655 75.24560547 41.72705078 C75.20435547 40.57205078 75.16310547 39.41705078 75.12060547 38.22705078 C75.78060547 38.22705078 76.44060547 38.22705078 77.12060547 38.22705078 C77.12060547 35.25705078 77.12060547 32.28705078 77.12060547 29.22705078 C77.78060547 29.22705078 78.44060547 29.22705078 79.12060547 29.22705078 C79.65790394 27.69104498 80.17467786 26.14785311 80.68310547 24.60205078 C81.11816406 23.31427734 81.11816406 23.31427734 81.56201172 22.00048828 C82.39829025 18.69832059 82.39829025 18.69832059 81.12060547 13.22705078 C48.45060547 12.73205078 48.45060547 12.73205078 15.12060547 12.22705078 C15.12060547 8.59705078 15.12060547 4.96705078 15.12060547 1.22705078 C9.84060547 1.22705078 4.56060547 1.22705078 -0.87939453 1.22705078 Z " fill="#E7A543" transform="translate(117.87939453125,52.77294921875)"/>
<path d="M0 0 C1.46657043 -0.00472824 1.46657043 -0.00472824 2.96276855 -0.009552 C4.0262854 -0.00752777 5.08980225 -0.00550354 6.18554688 -0.00341797 C7.81127625 -0.00485306 7.81127625 -0.00485306 9.46984863 -0.00631714 C11.76652077 -0.00699912 14.06319482 -0.00514358 16.35986328 -0.00097656 C19.88904115 0.00437141 23.41809174 -0.00092097 26.94726562 -0.00732422 C29.17252632 -0.00666344 31.39778694 -0.00538228 33.62304688 -0.00341797 C34.68656372 -0.0054422 35.75008057 -0.00746643 36.8458252 -0.009552 C37.82353882 -0.00639984 38.80125244 -0.00324768 39.80859375 0 C40.67383667 0.00079559 41.53907959 0.00159119 42.43054199 0.00241089 C44.40429688 0.12939453 44.40429688 0.12939453 45.40429688 1.12939453 C45.59179688 3.56689453 45.59179688 3.56689453 45.40429688 6.12939453 C42.94575182 8.58793958 42.27266675 8.38166401 38.89453125 8.38818359 C37.96016235 8.39448792 37.02579346 8.40079224 36.06311035 8.4072876 C35.0516394 8.40323914 34.04016846 8.39919067 32.99804688 8.39501953 C31.96240601 8.39693298 30.92676514 8.39884644 29.85974121 8.40081787 C27.66739662 8.4021805 25.47504399 8.39847867 23.28271484 8.39013672 C19.91811071 8.37943845 16.55404056 8.39002956 13.18945312 8.40283203 C11.06314986 8.40151045 8.93684692 8.39894809 6.81054688 8.39501953 C5.29334045 8.40109222 5.29334045 8.40109222 3.7454834 8.4072876 C2.8111145 8.40098328 1.87674561 8.39467896 0.9140625 8.38818359 C-0.32265198 8.38579681 -0.32265198 8.38579681 -1.58435059 8.38336182 C-3.59570312 8.12939453 -3.59570312 8.12939453 -5.59570312 6.12939453 C-5.78320312 3.56689453 -5.78320312 3.56689453 -5.59570312 1.12939453 C-3.98161063 -0.48469797 -2.23093904 0.00205135 0 0 Z " fill="#F7A115" transform="translate(78.595703125,85.87060546875)"/>
<path d="M0 0 C3.86853242 0.06239568 6.22994045 0.67406685 9.25 3.25 C11.1156461 6.30287544 11.25170747 8.15438162 11.1875 11.75 C10.07276962 15.91166007 8.53026327 17.52978168 5.25 20.25 C2.29206277 21.72896861 0.54779776 21.6855582 -2.75 21.25 C-5.69681403 19.702775 -7.81209524 17.96306667 -9.75 15.25 C-10.63500515 12.0572599 -10.6151748 9.44584979 -9.75 6.25 C-7.3125 3.25 -7.3125 3.25 -4.75 1.25 C-3.75 0.25 -3.75 0.25 0 0 Z " fill="#FC7314" transform="translate(162.75,109.75)"/>
<path d="M0 0 C3.39890142 2.06889652 5.88937011 4.11279537 7 8 C7.06592202 11.55978914 6.83902435 13.94660953 4.578125 16.78515625 C1.81871036 19.3675288 -0.30879842 20.8271996 -4 21.75 C-8.36916215 20.65770946 -11.13324171 18.44010994 -14 15 C-15.43254773 11.17987273 -15.23479074 9.63022778 -13.8125 5.8125 C-10.24479755 0.27640999 -6.59994005 -1.19402494 0 0 Z " fill="#F8761A" transform="translate(140,110)"/>
<path d="M0 0 C3.58943934 1.43299322 5.38746679 3.74639261 7.08984375 7.23046875 C7.96462247 9.5319252 8.70676824 11.55334753 9 14 C8.01 15.485 8.01 15.485 7 17 C4.375 17.1875 4.375 17.1875 2 17 C1.34 14.03 0.68 11.06 0 8 C-2.1346875 7.690625 -2.1346875 7.690625 -4.3125 7.375 C-5.11300781 7.25898437 -5.91351563 7.14296875 -6.73828125 7.0234375 C-9.28723215 6.78466593 -9.28723215 6.78466593 -12 9 C-12.72382467 11.05925139 -12.72382467 11.05925139 -13 13 C-13.66 13 -14.32 13 -15 13 C-15 18.94 -15 24.88 -15 31 C-16.32 31 -17.64 31 -19 31 C-19.11792821 27.85449187 -19.18781383 24.70956459 -19.25 21.5625 C-19.28351563 20.68400391 -19.31703125 19.80550781 -19.3515625 18.90039062 C-19.44466948 12.59239287 -18.47358166 7.37205352 -15 2 C-10.30712942 -1.12858039 -5.48788064 -0.68235553 0 0 Z " fill="#F6A00D" transform="translate(228,65)"/>
<path d="M0 0 C1.84765625 0.18359375 1.84765625 0.18359375 4 1 C7.69951802 7.10696556 9.60171995 14.5312431 11.8125 21.3125 C12.03156006 21.96935791 12.25062012 22.62621582 12.47631836 23.30297852 C13.83611477 27.64764042 14.20545383 31.46240543 14 36 C12.35 36 10.7 36 9 36 C8.34 32.7 7.68 29.4 7 26 C0.73 25.67 -5.54 25.34 -12 25 C-12.33 23.68 -12.66 22.36 -13 21 C-12.34 21 -11.68 21 -11 21 C-10.67 19.35 -10.34 17.7 -10 16 C-9.01 16 -8.02 16 -7 16 C-7.33 17.65 -7.66 19.3 -8 21 C-3.71 21 0.58 21 5 21 C4.6390625 19.90300781 4.278125 18.80601563 3.90625 17.67578125 C3.43711954 16.22147684 2.96839065 14.76704285 2.5 13.3125 C2.26152344 12.59126953 2.02304687 11.87003906 1.77734375 11.12695312 C0.55601006 7.30592343 -0.32075577 4.06557944 0 0 Z " fill="#F69F11" transform="translate(257,69)"/>
<path d="M0 0 C2.64 0 5.28 0 8 0 C8 0.66 8 1.32 8 2 C6.68 2.33 5.36 2.66 4 3 C3.67 7.62 3.34 12.24 3 17 C8.61 17.33 14.22 17.66 20 18 C20 18.99 20 19.98 20 21 C20.99 21.33 21.98 21.66 23 22 C23 27.28 23 32.56 23 38 C21.68 38 20.36 38 19 38 C18.93941406 37.08476563 18.87882812 36.16953125 18.81640625 35.2265625 C18.73261719 34.03804687 18.64882813 32.84953125 18.5625 31.625 C18.48128906 30.44164063 18.40007812 29.25828125 18.31640625 28.0390625 C18.18915064 25.08481099 18.18915064 25.08481099 17 23 C12.71 23 8.42 23 4 23 C3.67 27.29 3.34 31.58 3 36 C2.01 36 1.02 36 0 36 C0 24.12 0 12.24 0 0 Z " fill="#FA9E06" transform="translate(278,67)"/>
<path d="M0 0 C0.66 0 1.32 0 2 0 C2 8.91 2 17.82 2 27 C5.3 27 8.6 27 12 27 C12 28.65 12 30.3 12 32 C3.75 32 -4.5 32 -13 32 C-13 30.02 -13 28.04 -13 26 C-8.94952424 24.64984141 -6.2079832 25.37915002 -2 26 C-2.01047363 25.28344238 -2.02094727 24.56688477 -2.03173828 23.82861328 C-2.07321299 20.59411095 -2.09929892 17.35966447 -2.125 14.125 C-2.14175781 12.99707031 -2.15851563 11.86914062 -2.17578125 10.70703125 C-2.18222656 9.63066406 -2.18867188 8.55429688 -2.1953125 7.4453125 C-2.20578613 6.45031738 -2.21625977 5.45532227 -2.22705078 4.43017578 C-2 2 -2 2 0 0 Z " fill="#FC9E05" transform="translate(357,74)"/>
<path d="M0 0 C1.17111328 -0.01224609 2.34222656 -0.02449219 3.54882812 -0.03710938 C4.66580078 -0.03904297 5.78277344 -0.04097656 6.93359375 -0.04296875 C7.96411865 -0.04707764 8.99464355 -0.05118652 10.05639648 -0.05541992 C12.5625 0.1875 12.5625 0.1875 14.5625 2.1875 C14.6875 4.8125 14.6875 4.8125 14.5625 7.1875 C10.32870814 9.30439593 4.71410218 8.37243005 0.0625 8.375 C-1.10410156 8.38724609 -2.27070312 8.39949219 -3.47265625 8.41210938 C-5.14134766 8.41500977 -5.14134766 8.41500977 -6.84375 8.41796875 C-7.86791016 8.42207764 -8.89207031 8.42618652 -9.94726562 8.43041992 C-12.4375 8.1875 -12.4375 8.1875 -14.4375 6.1875 C-13.39340973 -2.37404024 -7.32460408 0.00401788 0 0 Z " fill="#EAA42A" transform="translate(109.4375,103.8125)"/>
<path d="M0 0 C1.11890625 -0.01224609 2.2378125 -0.02449219 3.390625 -0.03710938 C4.99164063 -0.04000977 4.99164063 -0.04000977 6.625 -0.04296875 C7.60726562 -0.04707764 8.58953125 -0.05118652 9.6015625 -0.05541992 C12 0.1875 12 0.1875 14 2.1875 C13.44444444 6.74305556 13.44444444 6.74305556 12 8.1875 C7.86037717 8.44051239 3.70894004 8.37272549 -0.4375 8.375 C-1.60861328 8.38724609 -2.77972656 8.39949219 -3.98632812 8.41210938 C-5.10330078 8.41404297 -6.22027344 8.41597656 -7.37109375 8.41796875 C-8.40161865 8.42207764 -9.43214355 8.42618652 -10.49389648 8.43041992 C-13 8.1875 -13 8.1875 -15 6.1875 C-14.75 3.625 -14.75 3.625 -14 1.1875 C-9.88137709 -0.87181145 -4.52640955 0.00260738 0 0 Z " fill="#EDAA32" transform="translate(110,67.8125)"/>
<path d="M0 0 C1.093125 0.433125 2.18625 0.86625 3.3125 1.3125 C3.92738281 1.55613281 4.54226563 1.79976563 5.17578125 2.05078125 C7.27040856 3.1407051 8.52597857 4.15203803 10 6 C11.38309617 10.51694697 11.48670836 14.59443143 9.4375 18.875 C8.963125 19.90625 8.48875 20.9375 8 22 C8.66 22.99 9.32 23.98 10 25 C10.16831093 27.58457128 10.23356334 30.04545273 10.1875 32.625 C10.18685547 33.31851563 10.18621094 34.01203125 10.18554688 34.7265625 C10.14043257 39.85956743 10.14043257 39.85956743 9 41 C7.02 41 5.04 41 3 41 C3 36.38 3 31.76 3 27 C3.33 27 3.66 27 4 27 C4 31.29 4 35.58 4 40 C5.32 40 6.64 40 8 40 C7.88660796 37.35319096 7.75987127 34.70822482 7.625 32.0625 C7.5940625 31.30775391 7.563125 30.55300781 7.53125 29.77539062 C7.4273685 27.84492605 7.22104386 25.92057919 7 24 C6.34 23.67 5.68 23.34 5 23 C5 22.01 5 21.02 5 20 C0.05 20 -4.9 20 -10 20 C-10 19.67 -10 19.34 -10 19 C-3.565 18.505 -3.565 18.505 3 18 C3.0309375 16.1128125 3.0309375 16.1128125 3.0625 14.1875 C3.07410156 13.47980469 3.08570313 12.77210937 3.09765625 12.04296875 C3.08263217 9.79694539 3.08263217 9.79694539 2 7 C-0.50447516 5.78130071 -0.50447516 5.78130071 -3 5 C-3 4.01 -3 3.02 -3 2 C-2.01 2 -1.02 2 0 2 C0 1.34 0 0.68 0 0 Z " fill="#E59E27" transform="translate(293,65)"/>
<path d="M0 0 C3.40963646 3.40963646 2.36907187 8.12605578 2.375 12.75 C2.39949219 13.74 2.42398437 14.73 2.44921875 15.75 C2.47367576 21.84794697 2.06384761 25.3661774 -2 30 C-6.15515369 33.67199629 -9.41605832 34.65056281 -14.8203125 34.38671875 C-19.49884965 33.55665571 -22.19406583 31.09191081 -24.9375 27.375 C-25.4634375 26.199375 -25.4634375 26.199375 -26 25 C-25.67 24.34 -25.34 23.68 -25 23 C-24.46375 23.969375 -23.9275 24.93875 -23.375 25.9375 C-21.27994174 29.27535611 -21.27994174 29.27535611 -17.75 29.875 C-16.8425 29.91625 -15.935 29.9575 -15 30 C-15 29.34 -15 28.68 -15 28 C-15.61875 27.896875 -16.2375 27.79375 -16.875 27.6875 C-19 27 -19 27 -21 24 C-21.22705078 22.00708008 -21.22705078 22.00708008 -21.1953125 19.76953125 C-21.18564453 18.56586914 -21.18564453 18.56586914 -21.17578125 17.33789062 C-21.15902344 16.50451172 -21.14226562 15.67113281 -21.125 14.8125 C-21.11597656 13.96751953 -21.10695313 13.12253906 -21.09765625 12.25195312 C-21.07410703 10.16784757 -21.03823647 8.08388783 -21 6 C-20.67 6 -20.34 6 -20 6 C-19.95101563 7.10859375 -19.90203125 8.2171875 -19.8515625 9.359375 C-19.77650785 10.82294065 -19.70096119 12.28648112 -19.625 13.75 C-19.5940625 14.47960937 -19.563125 15.20921875 -19.53125 15.9609375 C-19.3251506 19.73942656 -19.08487157 22.77946668 -17 26 C-15.54257537 26.08096803 -14.08387193 26.13917774 -12.625 26.1875 C-11.40683594 26.23970703 -11.40683594 26.23970703 -10.1640625 26.29296875 C-9.44992187 26.19628906 -8.73578125 26.09960938 -8 26 C-7.34 25.01 -6.68 24.02 -6 23 C-5.34 23 -4.68 23 -4 23 C-3.67 23.66 -3.34 24.32 -3 25 C-0.43863779 22.43863779 -0.70333143 21.33438669 -0.5859375 17.7734375 C-0.54726563 16.7421875 -0.50859375 15.7109375 -0.46875 14.6484375 C-0.4378125 13.56820312 -0.406875 12.48796875 -0.375 11.375 C-0.33632813 10.28703125 -0.29765625 9.1990625 -0.2578125 8.078125 C-0.16333753 5.38558835 -0.07777569 2.69306243 0 0 Z " fill="#EAA026" transform="translate(437,73)"/>
<path d="M0 0 C2.79224073 -0.08071788 5.58216566 -0.14035408 8.375 -0.1875 C9.1690625 -0.21263672 9.963125 -0.23777344 10.78125 -0.26367188 C12.85586148 -0.29004405 14.93100865 -0.15486462 17 0 C19.29013653 3.4352048 19.17842973 4.985331 19 9 C18.34 9 17.68 9 17 9 C17 12.63 17 16.26 17 20 C14.03 19.67 11.06 19.34 8 19 C8 19.33 8 19.66 8 20 C6.02 20 4.04 20 2 20 C2 19.01 2 18.02 2 17 C2.9075 16.938125 3.815 16.87625 4.75 16.8125 C8.10907985 16.2550157 8.10907985 16.2550157 10.3125 13.8125 C12.43172359 10.66989298 12.43172359 10.66989298 13 5 C8.71 5 4.42 5 0 5 C0 3.35 0 1.7 0 0 Z " fill="#F6A523" transform="translate(387,85)"/>
<path d="M0 0 C0.74362793 0.01047363 1.48725586 0.02094727 2.25341797 0.03173828 C3.46191406 0.04140625 3.46191406 0.04140625 4.69482422 0.05126953 C5.95746094 0.07640625 5.95746094 0.07640625 7.24560547 0.10205078 C8.51984375 0.11558594 8.51984375 0.11558594 9.81982422 0.12939453 C11.9202043 0.15299431 14.02043991 0.18886595 16.12060547 0.22705078 C17.21496726 4.36214791 17.1918835 7.95036865 17.12060547 12.22705078 C16.46060547 12.22705078 15.80060547 12.22705078 15.12060547 12.22705078 C15.12060547 8.59705078 15.12060547 4.96705078 15.12060547 1.22705078 C9.84060547 1.22705078 4.56060547 1.22705078 -0.87939453 1.22705078 C-1.20939453 3.20705078 -1.53939453 5.18705078 -1.87939453 7.22705078 C1.42060547 7.55705078 4.72060547 7.88705078 8.12060547 8.22705078 C9.99552736 13.77720883 10.38963491 18.60779199 10.31591797 24.44189453 C10.31308807 25.29763565 10.31025818 26.15337677 10.30734253 27.03504944 C10.29622482 29.74503069 10.27113629 32.45467088 10.24560547 35.16455078 C10.23556478 37.01155119 10.22644084 38.85855682 10.21826172 40.70556641 C10.19802195 45.21296223 10.15885799 49.71962861 10.12060547 54.22705078 C16.06060547 54.22705078 22.00060547 54.22705078 28.12060547 54.22705078 C28.12060547 54.55705078 28.12060547 54.88705078 28.12060547 55.22705078 C24.97479124 55.25593592 21.82901078 55.27381001 18.68310547 55.28955078 C17.33635742 55.30211914 17.33635742 55.30211914 15.96240234 55.31494141 C14.68139648 55.31977539 14.68139648 55.31977539 13.37451172 55.32470703 C12.58375244 55.32994385 11.79299316 55.33518066 10.97827148 55.34057617 C9.12060547 55.22705078 9.12060547 55.22705078 8.12060547 54.22705078 C7.99862739 52.8465422 7.94291648 51.46007431 7.9152832 50.07446289 C7.89533798 49.19362534 7.87539276 48.31278778 7.85484314 47.40525818 C7.83813065 46.44797318 7.82141815 45.49068817 7.80419922 44.50439453 C7.78341812 43.5291835 7.76263702 42.55397247 7.7412262 41.54920959 C7.67562134 38.42106448 7.61679519 35.29283256 7.55810547 32.16455078 C7.51493063 30.04930728 7.4713167 27.93407269 7.42724609 25.81884766 C7.31992892 20.62167491 7.21818326 15.42441501 7.12060547 10.22705078 C5.11865234 10.27587891 3.11669922 10.32470703 1.11474609 10.37353516 C-1.58899115 10.17492566 -2.99138435 9.11506097 -4.87939453 7.22705078 C-3.810977 0.46040642 -3.810977 0.46040642 0 0 Z " fill="#F3A929" transform="translate(117.87939453125,52.77294921875)"/>
<path d="M0 0 C11.79855822 -0.85911832 11.79855822 -0.85911832 15.5625 1.9375 C18.48515592 5.60955488 20.43535234 9.28872112 21 14 C20.01 15.485 20.01 15.485 19 17 C16.375 17.1875 16.375 17.1875 14 17 C13.34 14.03 12.68 11.06 12 8 C10.576875 7.814375 9.15375 7.62875 7.6875 7.4375 C6.88699219 7.33308594 6.08648437 7.22867188 5.26171875 7.12109375 C2.83182884 6.85244822 2.83182884 6.85244822 0 8 C0 7.34 0 6.68 0 6 C2.40545638 4.79727181 3.94996953 4.89928528 6.625 4.9375 C7.85089844 4.95103516 7.85089844 4.95103516 9.1015625 4.96484375 C10.04128906 4.98224609 10.04128906 4.98224609 11 5 C11 3.68 11 2.36 11 1 C7.37 1 3.74 1 0 1 C0 0.67 0 0.34 0 0 Z " fill="#EA9F18" transform="translate(216,65)"/>
<path d="M0 0 C0.92495854 2.77487561 1.09838693 4.28072415 1.02734375 7.125 C1.01509766 7.91390625 1.00285156 8.7028125 0.99023438 9.515625 C0.95507627 11.17196248 0.91601312 12.82822167 0.87304688 14.484375 C0.86208984 15.27328125 0.85113281 16.0621875 0.83984375 16.875 C0.82300537 17.59429687 0.80616699 18.31359375 0.78881836 19.0546875 C0.8839541 21.32606396 0.8839541 21.32606396 3 24 C3.99 24.33 4.98 24.66 6 25 C6.33 25.99 6.66 26.98 7 28 C0.5392562 27.39049587 0.5392562 27.39049587 -1.8125 25.6875 C-6.39395077 19.17701733 -5.5174904 11.88117801 -4.5 4.25 C-4.335 3.5075 -4.17 2.765 -4 2 C-3.01 2 -2.02 2 -1 2 C-0.67 1.34 -0.34 0.68 0 0 Z " fill="#F79D0D" transform="translate(416,76)"/>
<path d="M0 0 C1.134375 0.020625 2.26875 0.04125 3.4375 0.0625 C3.7675 1.3825 4.0975 2.7025 4.4375 4.0625 C3.4475 4.7225 2.4575 5.3825 1.4375 6.0625 C2.0975 6.3925 2.7575 6.7225 3.4375 7.0625 C3.4375 8.0525 3.4375 9.0425 3.4375 10.0625 C2.1175 10.3925 0.7975 10.7225 -0.5625 11.0625 C0.4275 11.7225 1.4175 12.3825 2.4375 13.0625 C2.4375 13.7225 2.4375 14.3825 2.4375 15.0625 C-5.3125 15.1875 -5.3125 15.1875 -7.5625 14.0625 C-7.418125 13.49917969 -7.27375 12.93585938 -7.125 12.35546875 C-6.36284742 9.24863844 -5.71837205 6.1190455 -5.0625 2.98828125 C-4.17885346 -0.41513864 -3.7924055 0.06653343 0 0 Z " fill="#D9A362" transform="translate(334.5625,113.9375)"/>
<path d="M0 0 C0.98613281 0.00322266 1.97226563 0.00644531 2.98828125 0.00976562 C4.02082031 0.01814453 5.05335937 0.02652344 6.1171875 0.03515625 C7.67759766 0.04192383 7.67759766 0.04192383 9.26953125 0.04882812 C11.84380712 0.06063673 14.41796896 0.0771055 16.9921875 0.09765625 C17.3221875 1.08765625 17.6521875 2.07765625 17.9921875 3.09765625 C17.0021875 3.09765625 16.0121875 3.09765625 14.9921875 3.09765625 C14.9921875 3.75765625 14.9921875 4.41765625 14.9921875 5.09765625 C12.07527225 5.1516732 9.15936026 5.19133691 6.2421875 5.22265625 C5.4171875 5.23941406 4.5921875 5.25617188 3.7421875 5.2734375 C2.94296875 5.27988281 2.14375 5.28632812 1.3203125 5.29296875 C0.5871582 5.30344238 -0.14599609 5.31391602 -0.90136719 5.32470703 C-3.30677326 5.06543169 -4.92032744 4.2899155 -7.0078125 3.09765625 C-7.0078125 2.43765625 -7.0078125 1.77765625 -7.0078125 1.09765625 C-4.50284246 -0.15482877 -2.79927976 -0.01608781 0 0 Z " fill="#FC9D03" transform="translate(105.0078125,105.90234375)"/>
<path d="M0 0 C0.66 0 1.32 0 2 0 C3.02250405 6.69860922 3.11756273 13.2315198 3.0625 20 C3.05798828 21.06089844 3.05347656 22.12179688 3.04882812 23.21484375 C3.03713843 25.80995598 3.02075276 28.40494709 3 31 C1.68 31 0.36 31 -1 31 C-1.02915731 26.95834861 -1.04685173 22.9167245 -1.0625 18.875 C-1.07087891 17.73289062 -1.07925781 16.59078125 -1.08789062 15.4140625 C-1.09111328 14.30546875 -1.09433594 13.196875 -1.09765625 12.0546875 C-1.10289307 11.03874512 -1.10812988 10.02280273 -1.11352539 8.97607422 C-0.99652309 5.90885274 -0.56776417 3.01366866 0 0 Z " fill="#FC9D08" transform="translate(322,74)"/>
<path d="M0 0 C8.94925538 -0.45504688 8.94925538 -0.45504688 13 3 C14.8656461 6.05287544 15.00170747 7.90438162 14.9375 11.5 C13.82276962 15.66166007 12.28026327 17.27978168 9 20 C6.15916359 21.42041821 4.14522722 21.31452272 1 21 C-1.375 19 -1.375 19 -3 17 C-0.36 17.66 2.28 18.32 5 19 C5 18.34 5 17.68 5 17 C5.66 17 6.32 17 7 17 C7 16.01 7 15.02 7 14 C7.99 13.67 8.98 13.34 10 13 C9.67 11.68 9.34 10.36 9 9 C9.99 8.67 10.98 8.34 12 8 C11.67012361 5.52592708 11.42027913 4.3362233 9.4375 2.75 C5.89085382 1.65872425 2.70471601 1.87650947 -1 2 C-0.67 1.34 -0.34 0.68 0 0 Z " fill="#ED7F31" transform="translate(159,110)"/>
<path d="M0 0 C0 0.66 0 1.32 0 2 C-2.375 3.6875 -2.375 3.6875 -5 5 C-5.66 4.67 -6.32 4.34 -7 4 C-7.80484014 9.14691887 -8.27231142 14.23789145 -8.5625 19.4375 C-8.60568359 20.16904297 -8.64886719 20.90058594 -8.69335938 21.65429688 C-8.79816821 23.43604715 -8.89945521 25.21800402 -9 27 C-9.99 27 -10.98 27 -12 27 C-12.02685095 24.52076199 -12.04676547 22.0418116 -12.0625 19.5625 C-12.07506836 18.50192383 -12.07506836 18.50192383 -12.08789062 17.41992188 C-12.09653588 15.61306441 -12.05220011 13.80612397 -12 12 C-11.67 11.67 -11.34 11.34 -11 11 C-11.99 10.67 -12.98 10.34 -14 10 C-13.01 9.67 -12.02 9.34 -11 9 C-10.87625 7.88625 -10.87625 7.88625 -10.75 6.75 C-9.11256379 0.74606724 -5.93398754 -0.53945341 0 0 Z " fill="#FB9D06" transform="translate(390,67)"/>
<path d="M0 0 C0.33 0.66 0.66 1.32 1 2 C0.70351562 2.65355469 0.40703125 3.30710937 0.1015625 3.98046875 C-1.50014801 8.37097309 -1.46757575 12.67176433 -1.625 17.3125 C-1.66367188 18.24384766 -1.70234375 19.17519531 -1.7421875 20.13476562 C-1.83606313 22.42298407 -1.92174509 24.71120295 -2 27 C-1.01 26.67 -0.02 26.34 1 26 C1.33 20.39 1.66 14.78 2 9 C2.33 9 2.66 9 3 9 C3.06058594 10.09699219 3.12117187 11.19398437 3.18359375 12.32421875 C3.26804498 13.77865654 3.35269066 15.23308305 3.4375 16.6875 C3.47681641 17.40873047 3.51613281 18.12996094 3.55664062 18.87304688 C3.78185678 22.66707282 4.12839305 26.28651492 5 30 C4.01 30 3.02 30 2 30 C1.7226499 33.18490007 1.7226499 33.18490007 4 36 C0.15521125 34.54163185 -1.1822915 32.63541701 -3 29 C-5.3888018 21.91596706 -5.15015866 10.99237611 -2.5625 4.0625 C-1 1 -1 1 0 0 Z " fill="#D99930" transform="translate(211,69)"/>
<path d="M0 0 C3.96930989 -0.02465881 7.93859034 -0.04284023 11.90795898 -0.05493164 C13.25920386 -0.05997057 14.61044326 -0.06680177 15.96166992 -0.07543945 C17.90020434 -0.08752419 19.838778 -0.09269828 21.77734375 -0.09765625 C23.52905884 -0.10551147 23.52905884 -0.10551147 25.31616211 -0.11352539 C28 0 28 0 29 1 C29.125 3.5 29.125 3.5 29 6 C28 7 28 7 25.71484375 7.09765625 C24.34005859 7.08025391 24.34005859 7.08025391 22.9375 7.0625 C22.01839844 7.05347656 21.09929687 7.04445313 20.15234375 7.03515625 C19.44207031 7.02355469 18.73179687 7.01195313 18 7 C18 6.67 18 6.34 18 6 C22.455 5.505 22.455 5.505 27 5 C27 4.34 27 3.68 27 3 C14.13 2.505 14.13 2.505 1 2 C1 2.99 1 3.98 1 5 C4.3 5.33 7.6 5.66 11 6 C11 6.33 11 6.66 11 7 C7.37 7 3.74 7 0 7 C-1 2 -1 2 0 0 Z " fill="#E3AC3F" transform="translate(309,65)"/>
<path d="M0 0 C2.625 0.25 2.625 0.25 4.5 1.5 C5.625 3.25 5.625 3.25 5.5 5.25 C4.53443569 7.45700414 3.43127247 8.67932829 1.625 10.25 C2.285 11.57 2.945 12.89 3.625 14.25 C2.861875 14.04375 2.09875 13.8375 1.3125 13.625 C-1.59385944 12.91608797 -1.59385944 12.91608797 -4.375 15.25 C-5.82124813 12.35750374 -5.04881051 10.34128096 -4.5 7.1875 C-4.31695312 6.10339844 -4.13390625 5.01929687 -3.9453125 3.90234375 C-3.17815648 0.33454279 -3.17815648 0.33454279 0 0 Z M-0.375 3.25 C-0.375 4.24 -0.375 5.23 -0.375 6.25 C0.615 5.92 1.605 5.59 2.625 5.25 C1.635 4.59 0.645 3.93 -0.375 3.25 Z " fill="#D69553" transform="translate(278.375,113.75)"/>
<path d="M0 0 C6.6 0 13.2 0 20 0 C19.67 1.32 19.34 2.64 19 4 C15.69005287 5.65497356 12.00877 5.10084335 8.375 5.0625 C7.57320313 5.05798828 6.77140625 5.05347656 5.9453125 5.04882812 C3.96350994 5.03703168 1.98174567 5.01909605 0 5 C0 3.35 0 1.7 0 0 Z " fill="#FC9E06" transform="translate(97,70)"/>
<path d="M0 0 C2.31 0.33 4.62 0.66 7 1 C7.6875 3.3125 7.6875 3.3125 8 6 C7.505 6.474375 7.01 6.94875 6.5 7.4375 C6.005 7.953125 5.51 8.46875 5 9 C5.23283149 12.14921909 5.23283149 12.14921909 6 15 C4.68 14.01 3.36 13.02 2 12 C1.01 12.99 0.02 13.98 -1 15 C-1.33 14.67 -1.66 14.34 -2 14 C-1.93577976 12.01793001 -1.79882322 10.03797746 -1.625 8.0625 C-1.53476562 6.98097656 -1.44453125 5.89945312 -1.3515625 4.78515625 C-1 2 -1 2 0 0 Z M4 3 C3.01 4.485 3.01 4.485 2 6 C3.32 5.34 4.64 4.68 6 4 C5.34 3.67 4.68 3.34 4 3 Z " fill="#DDA059" transform="translate(349,114)"/>
<path d="M0 0 C1.1446875 0.12375 1.1446875 0.12375 2.3125 0.25 C4.13225482 5.37839994 2.1724099 9.42684382 0.3125 14.25 C-1.3375 14.58 -2.9875 14.91 -4.6875 15.25 C-6.98771909 11.79967137 -6.80168012 10.19540004 -6.16015625 6.19140625 C-5.20568611 2.27097932 -4.12144715 0.38339043 0 0 Z M-2.6875 5.25 C-3.0175 7.23 -3.3475 9.21 -3.6875 11.25 C-2.6975 11.25 -1.7075 11.25 -0.6875 11.25 C-0.3575 9.27 -0.0275 7.29 0.3125 5.25 C-0.6775 5.25 -1.6675 5.25 -2.6875 5.25 Z " fill="#D18C53" transform="translate(298.6875,113.75)"/>
<path d="M0 0 C0.33 0 0.66 0 1 0 C1 11.88 1 23.76 1 36 C1.99 36 2.98 36 4 36 C3.98839844 35.07316406 3.97679687 34.14632812 3.96484375 33.19140625 C3.95582031 31.99386719 3.94679688 30.79632813 3.9375 29.5625 C3.92589844 28.36753906 3.91429687 27.17257813 3.90234375 25.94140625 C4 23 4 23 5 22 C7.18639453 21.92741054 9.37500389 21.91626217 11.5625 21.9375 C13.35880859 21.95103516 13.35880859 21.95103516 15.19140625 21.96484375 C16.11824219 21.97644531 17.04507812 21.98804687 18 22 C18 22.99 18 23.98 18 25 C17.67 24.67 17.34 24.34 17 24 C15.15108054 23.76636119 13.29511969 23.58696365 11.4375 23.4375 C9.643125 23.293125 7.84875 23.14875 6 23 C6 27.95 6 32.9 6 38 C4.02 38 2.04 38 0 38 C0 25.46 0 12.92 0 0 Z " fill="#E59A1D" transform="translate(277,67)"/>
<path d="M0 0 C1.65 0 3.3 0 5 0 C5 1.32 5 2.64 5 4 C3.68 4.33 2.36 4.66 1 5 C1 6.32 1 7.64 1 9 C2.32 8.34 3.64 7.68 5 7 C5 9.31 5 11.62 5 14 C1.71303767 14.79953138 0.28976808 15.09658936 -3 14 C-4.26332183 9.78892722 -4.00441956 7.4543291 -2.0625 3.625 C-1.39025121 2.40811576 -0.70765749 1.1966397 0 0 Z " fill="#D0945C" transform="translate(259,114)"/>
<path d="M0 0 C1.32 0.33 2.64 0.66 4 1 C4.11597653 4.77057547 4.18717396 8.54069393 4.25 12.3125 C4.28351563 13.38435547 4.31703125 14.45621094 4.3515625 15.56054688 C4.36445313 16.58857422 4.37734375 17.61660156 4.390625 18.67578125 C4.41157227 19.62364502 4.43251953 20.57150879 4.45410156 21.5480957 C4 24 4 24 0 27 C0 18.09 0 9.18 0 0 Z " fill="#FA9E08" transform="translate(433,72)"/>
<path d="M0 0 C3.40963646 3.40963646 2.36907187 8.12605578 2.375 12.75 C2.39949219 13.74 2.42398437 14.73 2.44921875 15.75 C2.47367576 21.84794697 2.06384761 25.3661774 -2 30 C-6.31053111 33.80930656 -9.50681685 34.43015618 -15.046875 34.3359375 C-17 34 -17 34 -19 32 C-18.19175781 31.97421875 -17.38351562 31.9484375 -16.55078125 31.921875 C-9.89580598 31.62822543 -9.89580598 31.62822543 -3.8125 29.1875 C-0.85365816 25.61648399 -0.85980441 22.10925622 -0.68359375 17.578125 C-0.64169922 16.55332031 -0.59980469 15.52851562 -0.55664062 14.47265625 C-0.51732422 13.40917969 -0.47800781 12.34570312 -0.4375 11.25 C-0.39431641 10.17105469 -0.35113281 9.09210938 -0.30664062 7.98046875 C-0.20071011 5.32043572 -0.09863579 2.66031188 0 0 Z " fill="#DF9F37" transform="translate(437,73)"/>
<path d="M0 0 C2.97 0 5.94 0 9 0 C12.07692308 5.41538462 12.07692308 5.41538462 11.6875 8.375 C11.460625 8.91125 11.23375 9.4475 11 10 C10.731875 9.195625 10.46375 8.39125 10.1875 7.5625 C9.795625 6.716875 9.40375 5.87125 9 5 C8.01 4.67 7.02 4.34 6 4 C6.55880859 5.89685547 6.55880859 5.89685547 7.12890625 7.83203125 C7.60721915 9.49205839 8.08505921 11.15222182 8.5625 12.8125 C8.80935547 13.64587891 9.05621094 14.47925781 9.31054688 15.33789062 C9.53935547 16.14033203 9.76816406 16.94277344 10.00390625 17.76953125 C10.21861572 18.50792236 10.4333252 19.24631348 10.65454102 20.00708008 C11 22 11 22 10 25 C8 19.66666667 6 14.33333333 4 9 C3.67 9 3.34 9 3 9 C2.67 7.02 2.34 5.04 2 3 C2.66 2.67 3.32 2.34 4 2 C3.01 2 2.02 2 1 2 C0.01 3.98 -0.98 5.96 -2 8 C-2.33 7.34 -2.66 6.68 -3 6 C-2.06553465 3.96855359 -1.06775224 1.96466413 0 0 Z " fill="#E09A31" transform="translate(251,65)"/>
<path d="M0 0 C0 3.96 0 7.92 0 12 C-2.97 11.67 -5.94 11.34 -9 11 C-9 11.33 -9 11.66 -9 12 C-10.98 12 -12.96 12 -15 12 C-15 11.01 -15 10.02 -15 9 C-14.0925 8.938125 -13.185 8.87625 -12.25 8.8125 C-8.22830776 7.80707694 -7.23832205 6.39893348 -5 3 C-4.67 2.34 -4.34 1.68 -4 1 C-1 0 -1 0 0 0 Z " fill="#F99D05" transform="translate(404,93)"/>
<path d="M0 0 C1.12341797 -0.01224609 2.24683594 -0.02449219 3.40429688 -0.03710938 C5.01208008 -0.04000977 5.01208008 -0.04000977 6.65234375 -0.04296875 C8.13528931 -0.04913208 8.13528931 -0.04913208 9.64819336 -0.05541992 C12.0625 0.1875 12.0625 0.1875 14.0625 2.1875 C13.6875 4.8125 13.6875 4.8125 13.0625 7.1875 C10.0925 7.1875 7.1225 7.1875 4.0625 7.1875 C4.0625 6.8575 4.0625 6.5275 4.0625 6.1875 C6.7025 6.1875 9.3425 6.1875 12.0625 6.1875 C12.0625 4.8675 12.0625 3.5475 12.0625 2.1875 C4.4725 2.5175 -3.1175 2.8475 -10.9375 3.1875 C-11.2675 4.1775 -11.5975 5.1675 -11.9375 6.1875 C-8.9675 6.1875 -5.9975 6.1875 -2.9375 6.1875 C-2.9375 6.5175 -2.9375 6.8475 -2.9375 7.1875 C-6.2375 7.1875 -9.5375 7.1875 -12.9375 7.1875 C-12.98004356 5.18795254 -12.97830783 3.18708364 -12.9375 1.1875 C-10.40440278 -1.34559722 -3.40755092 0.00194829 0 0 Z " fill="#DEA43E" transform="translate(356.9375,64.8125)"/>
<path d="M0 0 C8.25 0 16.5 0 25 0 C25 0.66 25 1.32 25 2 C24.00097656 2.04898438 23.00195312 2.09796875 21.97265625 2.1484375 C20.68230469 2.22320312 19.39195312 2.29796875 18.0625 2.375 C16.77472656 2.44460937 15.48695313 2.51421875 14.16015625 2.5859375 C13.11730469 2.72257812 12.07445312 2.85921875 11 3 C10.67 3.66 10.34 4.32 10 5 C6.7 4.34 3.4 3.68 0 3 C0 2.01 0 1.02 0 0 Z " fill="#FC9E07" transform="translate(310,67)"/>
<path d="M0 0 C0.74362793 0.01047363 1.48725586 0.02094727 2.25341797 0.03173828 C3.46191406 0.04140625 3.46191406 0.04140625 4.69482422 0.05126953 C5.95746094 0.07640625 5.95746094 0.07640625 7.24560547 0.10205078 C8.51984375 0.11558594 8.51984375 0.11558594 9.81982422 0.12939453 C11.9202043 0.15299431 14.02043991 0.18886595 16.12060547 0.22705078 C17.21496726 4.36214791 17.1918835 7.95036865 17.12060547 12.22705078 C16.46060547 12.22705078 15.80060547 12.22705078 15.12060547 12.22705078 C15.12060547 8.59705078 15.12060547 4.96705078 15.12060547 1.22705078 C9.84060547 1.22705078 4.56060547 1.22705078 -0.87939453 1.22705078 C-1.20939453 3.20705078 -1.53939453 5.18705078 -1.87939453 7.22705078 C-0.81398438 7.31792969 -0.81398438 7.31792969 0.27294922 7.41064453 C1.19205078 7.49443359 2.11115234 7.57822266 3.05810547 7.66455078 C4.43289062 7.78636719 4.43289062 7.78636719 5.83544922 7.91064453 C8.12060547 8.22705078 8.12060547 8.22705078 9.12060547 9.22705078 C9.1614133 11.22663442 9.16314903 13.22750332 9.12060547 15.22705078 C8.79060547 15.22705078 8.46060547 15.22705078 8.12060547 15.22705078 C7.79060547 13.57705078 7.46060547 11.92705078 7.12060547 10.22705078 C5.88310547 10.28892578 4.64560547 10.35080078 3.37060547 10.41455078 C0.33849245 10.43067904 -0.70187749 10.33356101 -3.37939453 8.72705078 C-3.87439453 8.23205078 -4.36939453 7.73705078 -4.87939453 7.22705078 C-3.810977 0.46040642 -3.810977 0.46040642 0 0 Z " fill="#E4A83D" transform="translate(117.87939453125,52.77294921875)"/>
<path d="M0 0 C2.625 0.9375 2.625 0.9375 5 2 C4.67 2.99 4.34 3.98 4 5 C2.35 4.67 0.7 4.34 -1 4 C-1.33 6.97 -1.66 9.94 -2 13 C-0.35 12.34 1.3 11.68 3 11 C2.34 12.65 1.68 14.3 1 16 C-3.875 15.125 -3.875 15.125 -5 14 C-5.35566035 8.66509475 -5.43651936 5.36173611 -2 1 C-1.34 0.67 -0.68 0.34 0 0 Z " fill="#C89162" transform="translate(316,113)"/>
<path d="M0 0 C3.625 -0.1875 3.625 -0.1875 7 0 C6.360625 0.309375 5.72125 0.61875 5.0625 0.9375 C3.06389179 1.8345163 3.06389179 1.8345163 2 3 C1.7834375 4.60875 1.7834375 4.60875 1.5625 6.25 C1.07165009 9.52233274 0.35790278 12.01261388 -1 15 C-1.66 15 -2.32 15 -3 15 C-3 15.66 -3 16.32 -3 17 C-3.66 17 -4.32 17 -5 17 C-5.32532209 11.46952448 -5.50652798 7.58545967 -2 3 C-1.34 2.01 -0.68 1.02 0 0 Z " fill="#F5A212" transform="translate(252,66)"/>
<path d="M0 0 C1.52519276 0.08937803 3.04681929 0.24537146 4.5625 0.4375 C5.80193359 0.59025391 5.80193359 0.59025391 7.06640625 0.74609375 C7.70449219 0.82988281 8.34257812 0.91367188 9 1 C8.34 2.32 7.68 3.64 7 5 C12.61 5.33 18.22 5.66 24 6 C24 6.33 24 6.66 24 7 C15.75 7 7.5 7 -1 7 C-1 1 -1 1 0 0 Z " fill="#E49619" transform="translate(345,99)"/>
<path d="M0 0 C1.32 0.66 2.64 1.32 4 2 C4 2.66 4 3.32 4 4 C7.63 4 11.26 4 15 4 C15 5.32 15 6.64 15 8 C12.91846065 8.13536022 10.83438794 8.23215465 8.75 8.3125 C7.58984375 8.37050781 6.4296875 8.42851563 5.234375 8.48828125 C2 8 2 8 -0.421875 5.48046875 C-0.94265625 4.66191406 -1.4634375 3.84335938 -2 3 C-1.34 2.67 -0.68 2.34 0 2 C0 1.34 0 0.68 0 0 Z " fill="#F99E09" transform="translate(213,97)"/>
<path d="M0 0 C1.32 0.66 2.64 1.32 4 2 C4.99 1.34 5.98 0.68 7 0 C7.33 0.66 7.66 1.32 8 2 C6.78515625 4.8203125 6.78515625 4.8203125 5.0625 8.125 C4.49660156 9.22070312 3.93070312 10.31640625 3.34765625 11.4453125 C2.90292969 12.28835937 2.45820313 13.13140625 2 14 C1.01 14 0.02 14 -1 14 C-0.814375 12.783125 -0.62875 11.56625 -0.4375 10.3125 C-0.00230613 6.9501802 -0.19649018 4.31447802 -1 1 C-0.67 0.67 -0.34 0.34 0 0 Z " fill="#D29751" transform="translate(367,114)"/>
<path d="M0 0 C0.99 0.33 1.98 0.66 3 1 C2.67386719 1.63808594 2.34773438 2.27617188 2.01171875 2.93359375 C0.65663853 7.04069017 0.74666969 10.76967104 0.8125 15.0625 C0.8134668 16.26616211 0.8134668 16.26616211 0.81445312 17.49414062 C0.84202232 21.18534993 0.99546455 24.42826272 2 28 C0.35 27.67 -1.3 27.34 -3 27 C-2.88899025 23.81185409 -2.75863821 20.62477124 -2.625 17.4375 C-2.5940625 16.54224609 -2.563125 15.64699219 -2.53125 14.72460938 C-2.30127783 9.49274255 -1.67595556 4.96655124 0 0 Z " fill="#F1A622" transform="translate(383,71)"/>
<path d="M0 0 C1.65 0 3.3 0 5 0 C5.38218767 1.65614657 5.71395102 3.32457024 6 5 C5 6 5 6 2.59155273 6.11352539 C1.54942627 6.10828857 0.5072998 6.10305176 -0.56640625 6.09765625 C-1.69111328 6.09443359 -2.81582031 6.09121094 -3.97460938 6.08789062 C-5.15861328 6.07951172 -6.34261719 6.07113281 -7.5625 6.0625 C-8.75037109 6.05798828 -9.93824219 6.05347656 -11.16210938 6.04882812 C-14.10812226 6.03699675 -17.05403681 6.02051287 -20 6 C-20 5.67 -20 5.34 -20 5 C-13.73 4.67 -7.46 4.34 -1 4 C-0.67 2.68 -0.34 1.36 0 0 Z " fill="#F3A21D" transform="translate(117,70)"/>
<path d="M0 0 C0.33 0.66 0.66 1.32 1 2 C1.66 2 2.32 2 3 2 C3 2.66 3 3.32 3 4 C3.61875 4.12375 4.2375 4.2475 4.875 4.375 C7 5 7 5 9 7 C9.125 9.625 9.125 9.625 9 12 C5.6053663 10.36121132 2.6909628 8.6909628 0 6 C-0.99 5.67 -1.98 5.34 -3 5 C-3 4.01 -3 3.02 -3 2 C-2.01 2 -1.02 2 0 2 C0 1.34 0 0.68 0 0 Z " fill="#F8A108" transform="translate(293,65)"/>
<path d="M0 0 C11.81614705 -0.86039906 11.81614705 -0.86039906 15.6875 2.25 C18.77167947 5.91767289 18.77167947 5.91767289 19 9 C18.401875 8.360625 17.80375 7.72125 17.1875 7.0625 C15.09189663 4.79689611 15.09189663 4.79689611 12 4 C12 5.32 12 6.64 12 8 C11.38511719 7.91621094 10.77023438 7.83242187 10.13671875 7.74609375 C9.32847656 7.64425781 8.52023438 7.54242188 7.6875 7.4375 C6.88699219 7.33308594 6.08648437 7.22867188 5.26171875 7.12109375 C2.83182884 6.85244822 2.83182884 6.85244822 0 8 C0 7.34 0 6.68 0 6 C2.40545638 4.79727181 3.94996953 4.89928528 6.625 4.9375 C7.85089844 4.95103516 7.85089844 4.95103516 9.1015625 4.96484375 C10.04128906 4.98224609 10.04128906 4.98224609 11 5 C11 3.68 11 2.36 11 1 C7.37 1 3.74 1 0 1 C0 0.67 0 0.34 0 0 Z " fill="#DFA135" transform="translate(216,65)"/>
<path d="M0 0 C0.33 0 0.66 0 1 0 C1.06058594 1.09699219 1.12117187 2.19398437 1.18359375 3.32421875 C1.26804498 4.77865654 1.35269066 6.23308305 1.4375 7.6875 C1.49647461 8.7693457 1.49647461 8.7693457 1.55664062 9.87304688 C1.78185678 13.66707282 2.12839305 17.28651492 3 21 C2.01 21 1.02 21 0 21 C-0.2773501 24.18490007 -0.2773501 24.18490007 2 27 C-1.875 25.125 -1.875 25.125 -3 24 C-3.04080783 22.00041636 -3.04254356 19.99954746 -3 18 C-2.34 17.67 -1.68 17.34 -1 17 C-0.67 11.39 -0.34 5.78 0 0 Z " fill="#E89C31" transform="translate(213,78)"/>
<path d="M0 0 C0.66 0 1.32 0 2 0 C2 1.65 2 3.3 2 5 C2.66 5.33 3.32 5.66 4 6 C4 6.66 4 7.32 4 8 C4.99 8.66 5.98 9.32 7 10 C6.67 10.99 6.34 11.98 6 13 C5.01 12.01 4.02 11.02 3 10 C2.01 10.99 1.02 11.98 0 13 C-0.33 12.67 -0.66 12.34 -1 12 C-0.90997602 9.97591245 -0.75358962 7.95455713 -0.5625 5.9375 C-0.46066406 4.83277344 -0.35882813 3.72804688 -0.25390625 2.58984375 C-0.17011719 1.73519531 -0.08632813 0.88054687 0 0 Z " fill="#D19A5E" transform="translate(348,116)"/>
<path d="M0 0 C1.65 0 3.3 0 5 0 C5.96706319 3.00864103 6.27677226 5.05360248 5 8 C3.02 8.99 3.02 8.99 1 10 C0.67 6.7 0.34 3.4 0 0 Z " fill="#F2A11D" transform="translate(231,90)"/>
<path d="M0 0 C2.92525181 0.32502798 4.78668664 0.85779109 7.25 2.5 C9.79208561 6.13155087 10.1013407 9.61896369 10 14 C9.0625 17.0625 9.0625 17.0625 8 19 C7.67 19 7.34 19 7 19 C6.61936779 16.6739143 6.28730055 14.33944736 6 12 C6.33 11.67 6.66 11.34 7 11 C7.50059916 8.58517587 7.50059916 8.58517587 7 6 C4.55503957 4.28288757 4.55503957 4.28288757 2 3 C2 2.34 2 1.68 2 1 C1.34 0.67 0.68 0.34 0 0 Z " fill="#EAA62D" transform="translate(294,66)"/>
<path d="M0 0 C1.65 0 3.3 0 5 0 C5 2.64 5 5.28 5 8 C3.68 8 2.36 8 1 8 C0.67 5.36 0.34 2.72 0 0 Z " fill="#F59F10" transform="translate(399,72)"/>
<path d="M0 0 C0.33 0 0.66 0 1 0 C1 2.64 1 5.28 1 8 C2.65 7.34 4.3 6.68 6 6 C5.34 7.65 4.68 9.3 4 11 C1.5625 10.625 1.5625 10.625 -1 10 C-2.27351308 7.45297384 -1.80191925 6.5717055 -1.0625 3.875 C-0.86785156 3.15054688 -0.67320312 2.42609375 -0.47265625 1.6796875 C-0.31667969 1.12539062 -0.16070312 0.57109375 0 0 Z " fill="#D4985A" transform="translate(313,118)"/>
<path d="M0 0 C0.99 0 1.98 0 3 0 C2.67 1.65 2.34 3.3 2 5 C3.06541016 5.09087891 3.06541016 5.09087891 4.15234375 5.18359375 C5.07144531 5.26738281 5.99054688 5.35117187 6.9375 5.4375 C8.31228516 5.55931641 8.31228516 5.55931641 9.71484375 5.68359375 C12 6 12 6 13 7 C13.04080783 8.99958364 13.04254356 11.00045254 13 13 C12.67 13 12.34 13 12 13 C11.67 11.35 11.34 9.7 11 8 C9.7625 8.061875 8.525 8.12375 7.25 8.1875 C4.21788698 8.20362826 3.17751704 8.10651023 0.5 6.5 C0.005 6.005 -0.49 5.51 -1 5 C-0.67 3.35 -0.34 1.7 0 0 Z " fill="#EBA532" transform="translate(114,55)"/>
<path d="M0 0 C1.134375 0.020625 2.26875 0.04125 3.4375 0.0625 C3.4375 1.0525 3.4375 2.0425 3.4375 3.0625 C0.4675 2.5675 0.4675 2.5675 -2.5625 2.0625 C-2.8925 3.7125 -3.2225 5.3625 -3.5625 7.0625 C-2.5725 7.0625 -1.5825 7.0625 -0.5625 7.0625 C-1.62796953 9.19343906 -2.85409719 10.42837557 -4.5625 12.0625 C-4.58937279 10.25007948 -4.60883715 8.43754767 -4.625 6.625 C-4.63660156 5.61566406 -4.64820313 4.60632813 -4.66015625 3.56640625 C-4.50618986 -0.38129207 -4.09874205 0.07190776 0 0 Z " fill="#D8904B" transform="translate(334.5625,113.9375)"/>
<path d="M0 0 C1.32 0.33 2.64 0.66 4 1 C4 1.66 4 2.32 4 3 C3.34 3.66 2.68 4.32 2 5 C2.3185177 7.10820797 2.3185177 7.10820797 3 9 C1 10 1 10 -3 9 C-2.01 6.03 -1.02 3.06 0 0 Z " fill="#FE720D" transform="translate(167,115)"/>
<path d="M0 0 C0.99 0.33 1.98 0.66 3 1 C3.33 2.98 3.66 4.96 4 7 C1.16032769 7 -1.23735711 6.59732819 -4 6 C-3.67 4.68 -3.34 3.36 -3 2 C-2.34 2 -1.68 2 -1 2 C-0.67 1.34 -0.34 0.68 0 0 Z " fill="#FB9C03" transform="translate(264,88)"/>
<path d="M0 0 C2.3828125 -0.29296875 2.3828125 -0.29296875 5.125 -0.1875 C6.03507813 -0.16042969 6.94515625 -0.13335937 7.8828125 -0.10546875 C8.58148438 -0.07066406 9.28015625 -0.03585938 10 0 C10 0.99 10 1.98 10 3 C6.04 3 2.08 3 -2 3 C-1.34 2.01 -0.68 1.02 0 0 Z " fill="#FB9D08" transform="translate(217,67)"/>
<path d="M0 0 C0.66 0.33 1.32 0.66 2 1 C1.34 1.66 0.68 2.32 0 3 C-0.24339551 5.89883083 -0.24339551 5.89883083 -0.125 9.125 C-0.10695312 10.22070312 -0.08890625 11.31640625 -0.0703125 12.4453125 C-0.04710937 13.28835937 -0.02390625 14.13140625 0 15 C-0.99 14.34 -1.98 13.68 -3 13 C-3.81490438 8.86156404 -3.63235128 5.08026677 -1.5 1.4375 C-0.7575 0.7259375 -0.7575 0.7259375 0 0 Z " fill="#E58639" transform="translate(156,112)"/>
<path d="M0 0 C0.66 0 1.32 0 2 0 C2.33 0.66 2.66 1.32 3 2 C3.66 1.67 4.32 1.34 5 1 C4.60196439 3.88575819 4.20990931 4.82189513 1.9375 6.75 C1.298125 7.1625 0.65875 7.575 0 8 C-1.125 5.6875 -1.125 5.6875 -2 3 C-1.34 2.01 -0.68 1.02 0 0 Z " fill="#F3A412" transform="translate(431,96)"/>
<path d="M0 0 C0 0.99 0 1.98 0 3 C-1.051875 2.7525 -2.10375 2.505 -3.1875 2.25 C-7.05366249 1.6110158 -7.05366249 1.6110158 -9.9375 3.9375 C-10.618125 4.618125 -11.29875 5.29875 -12 6 C-11.67 4.02 -11.34 2.04 -11 0 C-7.18243176 -1.37432457 -3.92744671 -0.67975039 0 0 Z " fill="#DC9929" transform="translate(429,70)"/>
<path d="M0 0 C1.74609375 1.5234375 1.74609375 1.5234375 3 3 C-2 3 -7 3 -12 3 C-8.22561516 -0.77438484 -5.06382535 -0.48226908 0 0 Z " fill="#ED8531" transform="translate(140,110)"/>
<path d="M0 0 C0.99 0 1.98 0 3 0 C3 1.98 3 3.96 3 6 C2.01 6.33 1.02 6.66 0 7 C0 7.66 0 8.32 0 9 C-0.66 9 -1.32 9 -2 9 C-1.41196203 5.97580475 -0.77321882 2.98241547 0 0 Z " fill="#F89F06" transform="translate(249,74)"/>
<path d="M0 0 C0.99 0.33 1.98 0.66 3 1 C3 2.98 3 4.96 3 7 C1.02 7 -0.96 7 -3 7 C-2.67 5.68 -2.34 4.36 -2 3 C-1.34 3.33 -0.68 3.66 0 4 C0 2.68 0 1.36 0 0 Z " fill="#FBA222" transform="translate(403,87)"/>
<path d="M0 0 C0.66 0 1.32 0 2 0 C2 2.31 2 4.62 2 7 C1.01 7.495 1.01 7.495 0 8 C-0.66 7.67 -1.32 7.34 -2 7 C-2.125 4.625 -2.125 4.625 -2 2 C-1.34 1.34 -0.68 0.68 0 0 Z " fill="#E09A5A" transform="translate(262,121)"/>
<path d="M0 0 C0.33 0 0.66 0 1 0 C1 1.98 1 3.96 1 6 C2.32 6 3.64 6 5 6 C5.33 5.34 5.66 4.68 6 4 C5.67 5.32 5.34 6.64 5 8 C2.69 8 0.38 8 -2 8 C-1.34 5.36 -0.68 2.72 0 0 Z " fill="#D99E29" transform="translate(240,98)"/>
<path d="M0 0 C0.66 0.33 1.32 0.66 2 1 C1.91245449 2.75091019 1.80426627 4.50079551 1.6875 6.25 C1.62949219 7.22453125 1.57148438 8.1990625 1.51171875 9.203125 C0.95363476 12.25341611 0.03630224 13.70711276 -2 16 C-2 14.02 -2 12.04 -2 10 C-1.34 10 -0.68 10 0 10 C-0.08378906 9.36191406 -0.16757813 8.72382812 -0.25390625 8.06640625 C-0.35574219 7.24011719 -0.45757812 6.41382812 -0.5625 5.5625 C-0.66691406 4.73878906 -0.77132812 3.91507812 -0.87890625 3.06640625 C-0.91886719 2.38449219 -0.95882812 1.70257813 -1 1 C-0.67 0.67 -0.34 0.34 0 0 Z " fill="#F69F1B" transform="translate(195,81)"/>
<path d="M0 0 C0.33 0 0.66 0 1 0 C1.50512244 1.60256108 2.00391627 3.20711792 2.5 4.8125 C2.7784375 5.70582031 3.056875 6.59914063 3.34375 7.51953125 C4 10 4 10 4 13 C1.28957842 10.72674319 0.10723994 9.40421209 -0.8125 5.9375 C-1 3 -1 3 0 0 Z " fill="#E8893B" transform="translate(126,116)"/>
<path d="M0 0 C0.99 0.33 1.98 0.66 3 1 C2.52433594 2.04220703 2.52433594 2.04220703 2.0390625 3.10546875 C0.90598948 6.26188644 0.59519989 8.97280167 0.375 12.3125 C0.30023438 13.38113281 0.22546875 14.44976562 0.1484375 15.55078125 C0.09945313 16.35902344 0.05046875 17.16726562 0 18 C-0.33 18 -0.66 18 -1 18 C-1.02717692 15.93757383 -1.0464758 13.87504297 -1.0625 11.8125 C-1.07410156 10.66394531 -1.08570313 9.51539062 -1.09765625 8.33203125 C-1.01192832 5.40699414 -0.67849023 2.83683709 0 0 Z " fill="#EE964A" transform="translate(383,71)"/>
<path d="M0 0 C0.66 0.33 1.32 0.66 2 1 C1.67 1.99 1.34 2.98 1 4 C-2.3 4.33 -5.6 4.66 -9 5 C-8.67 4.01 -8.34 3.02 -8 2 C-5.36 2 -2.72 2 0 2 C0 1.34 0 0.68 0 0 Z " fill="#EB9D15" transform="translate(335,67)"/>
<path d="M0 0 C0.99 0.66 1.98 1.32 3 2 C2.75 3.875 2.75 3.875 2 6 C-0.0625 7.25 -0.0625 7.25 -2 8 C-2.33 7.01 -2.66 6.02 -3 5 C-2.34 4.34 -1.68 3.68 -1 3 C-0.67 2.01 -0.34 1.02 0 0 Z " fill="#CE9856" transform="translate(281,115)"/>
<path d="M0 0 C0.66 1.32 1.32 2.64 2 4 C1.01 4.495 1.01 4.495 0 5 C-0.33 5.99 -0.66 6.98 -1 8 C-1.99 7.67 -2.98 7.34 -4 7 C-1.125 1.125 -1.125 1.125 0 0 Z " fill="#D8A338" transform="translate(296,114)"/>
<path d="M0 0 C1.25127906 3.54667178 0.72285053 5.72253438 -0.4375 9.25 C-0.72496094 10.14203125 -1.01242188 11.0340625 -1.30859375 11.953125 C-1.53675781 12.62859375 -1.76492187 13.3040625 -2 14 C-2.33 14 -2.66 14 -3 14 C-3.34615998 8.34605369 -2.43425238 4.96993194 0 0 Z " fill="#EAA437" transform="translate(194,94)"/>
<path d="M0 0 C0.66 0 1.32 0 2 0 C2 0.99 2 1.98 2 3 C5.3 3.33 8.6 3.66 12 4 C12 4.33 12 4.66 12 5 C8.37 5 4.74 5 1 5 C0.67 3.35 0.34 1.7 0 0 Z " fill="#D0952D" transform="translate(308,67)"/>
<path d="M0 0 C1.485 0.99 1.485 0.99 3 2 C2.01 3.485 2.01 3.485 1 5 C1.99 6.65 2.98 8.3 4 10 C0.125 8.125 0.125 8.125 -1 7 C-1.125 4 -1.125 4 -1 1 C-0.67 0.67 -0.34 0.34 0 0 Z " fill="#E59A1F" transform="translate(211,95)"/>
<path d="M0 0 C4.67692308 1.47692308 4.67692308 1.47692308 6.3125 4.125 C6.539375 4.74375 6.76625 5.3625 7 6 C4.03824877 5.38722388 2.61941217 4.74627478 0 3 C0 2.01 0 1.02 0 0 Z " fill="#D88B4D" transform="translate(275,122)"/>
<path d="M0 0 C1.32 0 2.64 0 4 0 C4.33 1.65 4.66 3.3 5 5 C4.01 5.495 4.01 5.495 3 6 C3 5.34 3 4.68 3 4 C2.01 4 1.02 4 0 4 C0 2.68 0 1.36 0 0 Z " fill="#E39656" transform="translate(297,114)"/>
<path d="M0 0 C2.64 0 5.28 0 8 0 C8.33 0.66 8.66 1.32 9 2 C8.34 2 7.68 2 7 2 C6.67 2.66 6.34 3.32 6 4 C4.68 3.34 3.36 2.68 2 2 C1.67 2.66 1.34 3.32 1 4 C0.67 2.68 0.34 1.36 0 0 Z " fill="#FB730E" transform="translate(132,112)"/>
<path d="M0 0 C0.99 0 1.98 0 3 0 C3 1.98 3 3.96 3 6 C1.68 6 0.36 6 -1 6 C-0.67 4.02 -0.34 2.04 0 0 Z " fill="#F99E06" transform="translate(242,98)"/>
<path d="M0 0 C2.31 0 4.62 0 7 0 C7 0.66 7 1.32 7 2 C4.36 2.99 1.72 3.98 -1 5 C-0.67 3.35 -0.34 1.7 0 0 Z " fill="#F1A565" transform="translate(332,116)"/>
<path d="M0 0 C1.65 0 3.3 0 5 0 C5.33 1.32 5.66 2.64 6 4 C4.35 4.33 2.7 4.66 1 5 C0.67 3.35 0.34 1.7 0 0 Z " fill="#E5A03B" transform="translate(349,114)"/>
<path d="M0 0 C2.8203125 -0.29296875 2.8203125 -0.29296875 6.125 -0.1875 C7.76855469 -0.14689453 7.76855469 -0.14689453 9.4453125 -0.10546875 C10.28835938 -0.07066406 11.13140625 -0.03585938 12 0 C12 0.33 12 0.66 12 1 C11.11248047 1.09087891 11.11248047 1.09087891 10.20703125 1.18359375 C6.09021792 1.62012371 2.04455467 2.08671346 -2 3 C-1.34 2.01 -0.68 1.02 0 0 Z " fill="#EFA11D" transform="translate(417,66)"/>
<path d="M0 0 C1.485 0.99 1.485 0.99 3 2 C2.67 4.31 2.34 6.62 2 9 C0.05276405 6.07914607 -0.55175352 4.40667322 -1 1 C-0.67 0.67 -0.34 0.34 0 0 Z " fill="#D08D60" transform="translate(367,114)"/>
<path d="M0 0 C1.32 0.33 2.64 0.66 4 1 C4 2.98 4 4.96 4 7 C3.34 7 2.68 7 2 7 C2 5.68 2 4.36 2 3 C1.34 3 0.68 3 0 3 C0 2.01 0 1.02 0 0 Z " fill="#FC9D07" transform="translate(257,69)"/>
<path d="M0 0 C0.66 0 1.32 0 2 0 C2 1.65 2 3.3 2 5 C2.66 5.33 3.32 5.66 4 6 C3.34 6.66 2.68 7.32 2 8 C1.34 7.67 0.68 7.34 0 7 C0 4.69 0 2.38 0 0 Z " fill="#D48643" transform="translate(348,116)"/>
<path d="M0 0 C2.97 0.495 2.97 0.495 6 1 C6 1.99 6 2.98 6 4 C4.35 4.33 2.7 4.66 1 5 C1.33 3.68 1.66 2.36 2 1 C1.34 0.67 0.68 0.34 0 0 Z " fill="#DFB07D" transform="translate(332,120)"/>
<path d="M0 0 C0.99 0.33 1.98 0.66 3 1 C2.67 2.32 2.34 3.64 2 5 C-0.97 4.505 -0.97 4.505 -4 4 C-2.68 2.68 -1.36 1.36 0 0 Z " fill="#EF9907" transform="translate(318,67)"/>
<path d="M0 0 C0.99 0.33 1.98 0.66 3 1 C2.34 2.32 1.68 3.64 1 5 C-0.65 4.67 -2.3 4.34 -4 4 C-2.68 2.68 -1.36 1.36 0 0 Z " fill="#F7A20F" transform="translate(380,74)"/>
</svg>
